<svg width="1177" height="874" viewBox="0 0 1177 874" fill="none" xmlns="http://www.w3.org/2000/svg">
<g id="undraw_connected_world_wuay 1">
<g clip-path="url(#clip0)">
<rect width="1176.61" height="873.979" fill="white"/>
<path id="Vector" d="M1083.97 212.452C950.424 26.6217 668.322 -48.7591 390.883 32.4278C244.21 75.3488 102.79 161.348 32.7055 327.869C-92.5779 625.544 170.47 720.614 342.475 750.914C425.648 765.565 503.982 790.176 575.564 823.684C704.348 883.969 932.303 937.387 1104.2 686.275C1228.79 504.269 1172.92 336.233 1083.97 212.452Z" fill="white"/>
<g id="cont-border">
<g id="Vector_2">
<mask id="path-3-inside-1" fill="white">
<path d="M309.732 249.217C309.358 246.264 308.603 243.372 307.484 240.613C307.342 240.091 307.092 239.605 306.751 239.185C306.41 238.765 305.986 238.421 305.504 238.174C304.861 238.007 304.186 237.999 303.54 238.152L293.452 239.696C292.608 239.734 291.8 240.048 291.151 240.59C289.837 241.972 291.131 244.196 291.09 246.103C291.045 248.246 289.141 249.986 287.075 250.562C284.967 250.988 282.793 250.961 280.696 250.483L266.591 248.291C270.745 246.964 274.442 244.497 277.261 241.17C279.117 238.971 280.105 234.866 277.422 233.824C276.625 233.606 275.794 233.539 274.973 233.628C268.582 233.677 263.553 228.342 257.57 226.094C253.741 224.749 249.585 224.649 245.696 225.809C241.806 226.968 238.383 229.328 235.916 232.55L243.43 232.912C244.137 232.873 244.838 233.06 245.431 233.446C247.078 234.799 245.031 237.398 245.263 239.516C245.564 242.269 249.219 242.856 251.974 243.135C254.729 243.413 258.224 245.651 256.898 248.083C243.052 252.852 228.961 238.759 214.419 240.494C210.739 240.933 207.264 242.379 203.67 243.288C181.719 248.842 159.026 234.024 136.602 237.162C131.617 238.012 126.718 239.304 121.962 241.023C118.91 242.025 115.727 243.108 113.509 245.432C111.292 247.756 110.448 251.731 112.548 254.161C106.758 254.638 100.929 254.084 95.3326 252.524C96.8461 253.366 98.1052 254.599 98.9777 256.095C99.8502 257.59 100.304 259.293 100.291 261.025C91.2506 262.499 82.4493 265.183 74.1241 269.003C75.6779 271.587 77.4927 274.005 79.5401 276.218L68.0947 283.571C71.9615 284.545 73.9607 289.818 71.7121 293.111C75.7215 291.328 78.2063 286.713 82.4937 285.778C85.3025 285.165 88.1606 286.314 90.8252 287.393C93.4897 288.473 96.4184 289.519 99.1768 288.709C101.935 287.899 103.97 284.323 102.217 282.044C114.007 278.604 126.192 276.7 138.47 276.38C139.417 276.261 140.378 276.443 141.215 276.901C142.814 278.01 142.393 280.405 142.307 282.348C142.221 284.291 143.736 286.845 145.472 285.969C143.429 287.741 145.176 291.077 147.136 292.94C149.097 294.804 151.46 297.375 150.259 299.798C149.946 300.431 149.415 300.937 149.113 301.575C148.224 303.46 149.636 305.656 151.302 306.907C152.968 308.159 155.009 309.033 156.167 310.766C157.324 312.499 156.798 315.531 154.729 315.773L148.847 308.305C146.837 310.389 145.459 313 144.873 315.835C151.111 320.934 152.049 331.313 146.827 337.448C144.158 340.583 140.363 342.489 137.051 344.934C133.738 347.38 130.674 350.862 130.682 354.979C130.696 362.092 130.115 368.7 132.78 375.295C137.696 387.455 143.37 399.295 149.771 410.743C151.452 413.749 153.624 417.044 157.029 417.561C152.726 407.085 148.852 396.446 145.408 385.644C147.651 385.653 150.244 385.831 151.559 387.648C152.648 389.153 152.414 391.2 152.752 393.026C153.182 394.796 153.9 396.483 154.877 398.021L175.426 434.625C177.13 437.66 179.084 440.917 182.339 442.146C184.421 442.932 186.829 442.784 188.745 443.915C190.247 444.801 191.258 446.375 192.789 447.21C197.118 449.572 203.138 445.043 207.183 447.862C208.34 448.669 209.076 449.949 210.142 450.872C213.878 454.108 220.007 451.943 224.32 454.357C227.1 455.913 228.541 459.024 230.023 461.843C233.737 468.905 239.747 475.824 247.706 476.386C250.206 476.563 252.76 476.089 255.204 476.645C257.648 477.201 260.054 479.334 259.661 481.809C258.989 486.053 261.086 490.701 260.522 494.96C259.497 502.72 248.49 506.13 247.545 513.9C247.338 515.601 247.662 517.357 247.257 519.022C246.76 521.063 245.228 522.724 244.683 524.753C243.651 528.597 246.405 532.423 249.431 535.009C252.456 537.595 256.065 539.825 257.72 543.446C259.468 547.272 258.609 551.734 259.178 555.903C260.419 565.003 268.279 571.75 276.369 576.1C278.833 577.425 281.479 578.708 283.075 581.007C285.157 584.008 284.949 587.964 285.645 591.55C287.347 600.331 294.74 607.567 294.95 616.51C295.099 622.866 291.566 628.632 289.455 634.629C287.476 640.376 286.76 646.481 287.356 652.529C287.951 658.577 289.844 664.425 292.906 669.675C294.485 672.341 296.373 674.855 297.49 677.745C299.483 682.902 298.836 688.765 300.674 693.98C303.104 700.875 309.78 706.57 309.141 713.852C312.172 720.146 318.864 723.238 325.594 725.112L337.656 728.469C339.965 729.112 342.379 729.76 344.73 729.295C347.082 728.829 349.326 726.876 349.266 724.48C343.351 723.146 337.246 721.727 332.371 718.123C327.495 714.519 324.155 708.1 326.005 702.326C326.862 699.649 328.687 696.557 326.952 694.344C325.959 693.078 324.142 692.747 323.022 691.591C321.274 689.788 321.875 686.76 323.131 684.586C324.388 682.412 326.204 680.47 326.71 678.01C326.966 676.635 326.795 675.214 326.221 673.938C325.646 672.662 324.695 671.592 323.495 670.873C325.731 670.028 327.765 668.723 329.465 667.042C331.035 665.249 331.76 662.485 330.525 660.447C334.192 660.912 338.522 661.14 340.93 658.334C342.852 656.094 342.72 652.745 341.961 649.892C341.201 647.039 339.917 644.268 339.877 641.316C348.337 641.717 356.816 641.43 365.23 640.457C364.013 636.359 361.248 632.897 357.522 630.803C361.332 630.158 364.804 625.596 366.008 621.924C367.212 618.252 366.905 614.251 366.161 610.459C365.875 609.482 365.836 608.45 366.047 607.455C366.476 606.088 367.819 605.253 369.062 604.539L387.976 593.677C389.105 593.111 390.128 592.356 391.001 591.444C392.983 589.116 392.689 585.602 391.674 582.719C390.66 579.835 389.034 577.123 388.643 574.091C387.474 565.024 397.181 558.518 400.457 549.982C401.742 546.633 402.004 542.992 402.253 539.412C402.52 535.568 402.54 531.103 399.589 528.625C396.759 526.251 392.338 526.78 389.377 524.571C386.663 522.546 385.726 518.613 382.761 516.977C380.068 515.492 376.691 516.437 373.696 515.738C368.422 514.508 365.104 508.43 359.718 507.867C356.679 507.55 353.24 509.035 350.749 507.265C348.555 505.706 348.467 502.572 348.049 499.912C347.317 495.779 345.336 491.969 342.372 488.996C339.409 486.023 335.605 484.029 331.474 483.284C328.341 482.781 324.931 482.972 322.265 481.25C319.566 479.507 318.329 476.243 316.209 473.828C312.792 469.937 307.41 468.554 302.369 467.369L281.863 462.548C278.223 461.693 273.531 461.239 271.578 464.428C271 465.642 270.59 466.929 270.361 468.254C269.629 470.651 268.156 472.754 266.154 474.262C264.151 475.769 261.723 476.602 259.217 476.642C257.498 473.711 254.714 471.557 251.445 470.629C249.366 470.05 247.14 469.985 245.157 469.133C244.077 468.606 243.116 467.864 242.333 466.952C241.549 466.041 240.96 464.979 240.602 463.832C240.243 462.685 240.122 461.477 240.246 460.281C240.371 459.086 240.738 457.929 241.325 456.88C242.507 454.775 242.963 452.34 242.624 449.95C242.284 447.559 241.168 445.347 239.446 443.655C235.959 440.524 230.914 439.768 226.238 440.081C225.014 437.409 227.061 434.394 229.268 432.452C231.475 430.51 234.154 428.601 234.635 425.701C235.39 421.14 229.57 417.675 225.151 419.036C220.732 420.396 217.912 424.688 216.047 428.919C214.977 431.347 214.068 433.903 212.38 435.95C210.693 437.997 207.976 439.463 205.405 438.806C201.767 437.876 200.361 433.553 199.556 429.884C198.475 424.962 197.389 419.972 197.615 414.939C197.841 409.905 199.538 404.736 203.25 401.328C209.299 395.775 218.578 396.319 226.742 397.205C224.813 395.032 225.29 391.37 227.353 389.325C228.443 388.357 229.752 387.669 231.167 387.322C232.582 386.974 234.06 386.977 235.474 387.33C237.934 387.842 240.15 389.167 241.765 391.091C244.085 393.92 244.745 397.738 246.498 400.949C248.252 404.159 252.194 406.897 255.421 405.175C258.209 403.687 258.651 399.822 257.958 396.74C257.264 393.657 255.79 390.66 256.042 387.51C256.521 381.501 262.751 377.883 268.248 375.408C273.745 372.933 280.04 369.605 280.911 363.639C280.941 362.471 281.161 361.316 281.563 360.219C282.173 359.25 283.02 358.453 284.025 357.904C300.069 347.301 316.379 336.569 334.717 330.776C335.671 330.474 335.783 330.809 336.755 330.573C338.116 329.787 337.214 327.611 335.91 326.734C334.605 325.858 332.861 325.186 332.53 323.65C332.287 322.52 332.952 321.411 333.125 320.269C333.55 317.462 330.192 314.87 327.584 315.992C326.111 314.042 329.026 311.775 331.383 311.126C338.46 309.178 345.724 307.992 353.053 307.586C353.899 307.452 354.765 307.599 355.519 308.005C356.75 308.858 356.593 310.814 355.72 312.031C354.848 313.248 353.491 314.012 352.404 315.042C351.216 316.199 350.369 317.66 349.955 319.266C349.541 320.871 349.576 322.56 350.056 324.147C353.882 326.093 358.041 328.096 362.279 327.411C366.516 326.725 370.277 321.964 368.285 318.162C366.431 314.621 360.859 313.822 359.901 309.941C358.779 305.397 365.211 301.356 363.763 296.906C363.128 294.956 361.185 293.809 359.694 292.402C357.934 290.676 356.736 288.459 356.259 286.04C355.782 283.622 356.047 281.115 357.02 278.85C354.592 279.277 352.097 279.116 349.744 278.38C347.391 277.643 345.249 276.354 343.497 274.619C340.263 271.354 337.682 266.205 333.089 266.351C328.875 266.485 325.244 271.402 321.303 269.902C320.333 269.533 319.311 268.782 318.372 269.222C318.064 269.422 317.805 269.689 317.616 270.004C317.427 270.318 317.311 270.671 317.278 271.037C316.277 275.825 318 281.281 315.39 285.419C312.55 289.922 305.981 290.546 302.538 294.606C300.669 296.81 299.945 299.78 298.227 302.104C296.51 304.428 292.863 305.905 290.802 303.88C291.815 301.797 292.092 299.432 291.587 297.172C291.082 294.911 289.825 292.889 288.022 291.435C286.108 290.186 284.044 289.183 281.88 288.448C279.462 287.424 277.162 286.142 275.02 284.624C273.946 283.977 273.074 283.044 272.501 281.929C272.047 280.534 272.108 279.022 272.673 277.668C273.719 274.67 275.563 272.016 278.007 269.99C280.45 267.965 283.401 266.645 286.54 266.174C289.285 265.8 292.48 265.932 294.296 263.841C295.258 262.734 295.762 261.061 297.157 260.611C298.049 260.432 298.976 260.546 299.798 260.937L310.043 264.543C311.186 265.059 312.445 265.267 313.693 265.146C314.312 265.063 314.877 264.749 315.274 264.266C315.67 263.784 315.87 263.17 315.833 262.546C315.505 260.845 312.887 260.028 313.126 258.312C313.259 257.756 313.558 257.253 313.983 256.871C317.681 252.935 322.202 249.866 327.225 247.883C332.247 245.899 337.646 245.051 343.034 245.398C344.328 247.522 342.282 250.037 340.581 251.85C338.879 253.663 337.512 256.903 339.569 258.298C340.413 258.729 341.351 258.94 342.297 258.913C344.82 259.254 347.271 259.998 349.558 261.115C353.099 262.656 356.571 264.341 359.975 266.172C359.675 263.927 359.388 261.563 360.238 259.464C361.089 257.365 363.507 255.719 365.62 256.536C367.655 257.324 368.699 260.019 370.868 260.266C373.76 260.595 374.902 256.322 373.693 253.673C372.485 251.024 370.093 248.806 369.893 245.901C369.759 243.942 370.504 241.511 368.939 240.325C368.382 239.969 367.75 239.747 367.092 239.677L328.008 232.485C325.687 232.058 322.334 232.385 322.231 234.743C322.174 236.059 323.349 237.361 322.829 238.571C322.273 239.862 320.447 239.744 319.118 240.201C317.055 240.91 316.019 243.359 316.218 245.532C316.58 247.69 317.416 249.742 318.666 251.539C316.123 250.476 312.274 250.281 309.732 249.217Z"/>
</mask>
<path d="M309.732 249.217C309.358 246.264 308.603 243.372 307.484 240.613C307.342 240.091 307.092 239.605 306.751 239.185C306.41 238.765 305.986 238.421 305.504 238.174C304.861 238.007 304.186 237.999 303.54 238.152L293.452 239.696C292.608 239.734 291.8 240.048 291.151 240.59C289.837 241.972 291.131 244.196 291.09 246.103C291.045 248.246 289.141 249.986 287.075 250.562C284.967 250.988 282.793 250.961 280.696 250.483L266.591 248.291C270.745 246.964 274.442 244.497 277.261 241.17C279.117 238.971 280.105 234.866 277.422 233.824C276.625 233.606 275.794 233.539 274.973 233.628C268.582 233.677 263.553 228.342 257.57 226.094C253.741 224.749 249.585 224.649 245.696 225.809C241.806 226.968 238.383 229.328 235.916 232.55L243.43 232.912C244.137 232.873 244.838 233.06 245.431 233.446C247.078 234.799 245.031 237.398 245.263 239.516C245.564 242.269 249.219 242.856 251.974 243.135C254.729 243.413 258.224 245.651 256.898 248.083C243.052 252.852 228.961 238.759 214.419 240.494C210.739 240.933 207.264 242.379 203.67 243.288C181.719 248.842 159.026 234.024 136.602 237.162C131.617 238.012 126.718 239.304 121.962 241.023C118.91 242.025 115.727 243.108 113.509 245.432C111.292 247.756 110.448 251.731 112.548 254.161C106.758 254.638 100.929 254.084 95.3326 252.524C96.8461 253.366 98.1052 254.599 98.9777 256.095C99.8502 257.59 100.304 259.293 100.291 261.025C91.2506 262.499 82.4493 265.183 74.1241 269.003C75.6779 271.587 77.4927 274.005 79.5401 276.218L68.0947 283.571C71.9615 284.545 73.9607 289.818 71.7121 293.111C75.7215 291.328 78.2063 286.713 82.4937 285.778C85.3025 285.165 88.1606 286.314 90.8252 287.393C93.4897 288.473 96.4184 289.519 99.1768 288.709C101.935 287.899 103.97 284.323 102.217 282.044C114.007 278.604 126.192 276.7 138.47 276.38C139.417 276.261 140.378 276.443 141.215 276.901C142.814 278.01 142.393 280.405 142.307 282.348C142.221 284.291 143.736 286.845 145.472 285.969C143.429 287.741 145.176 291.077 147.136 292.94C149.097 294.804 151.46 297.375 150.259 299.798C149.946 300.431 149.415 300.937 149.113 301.575C148.224 303.46 149.636 305.656 151.302 306.907C152.968 308.159 155.009 309.033 156.167 310.766C157.324 312.499 156.798 315.531 154.729 315.773L148.847 308.305C146.837 310.389 145.459 313 144.873 315.835C151.111 320.934 152.049 331.313 146.827 337.448C144.158 340.583 140.363 342.489 137.051 344.934C133.738 347.38 130.674 350.862 130.682 354.979C130.696 362.092 130.115 368.7 132.78 375.295C137.696 387.455 143.37 399.295 149.771 410.743C151.452 413.749 153.624 417.044 157.029 417.561C152.726 407.085 148.852 396.446 145.408 385.644C147.651 385.653 150.244 385.831 151.559 387.648C152.648 389.153 152.414 391.2 152.752 393.026C153.182 394.796 153.9 396.483 154.877 398.021L175.426 434.625C177.13 437.66 179.084 440.917 182.339 442.146C184.421 442.932 186.829 442.784 188.745 443.915C190.247 444.801 191.258 446.375 192.789 447.21C197.118 449.572 203.138 445.043 207.183 447.862C208.34 448.669 209.076 449.949 210.142 450.872C213.878 454.108 220.007 451.943 224.32 454.357C227.1 455.913 228.541 459.024 230.023 461.843C233.737 468.905 239.747 475.824 247.706 476.386C250.206 476.563 252.76 476.089 255.204 476.645C257.648 477.201 260.054 479.334 259.661 481.809C258.989 486.053 261.086 490.701 260.522 494.96C259.497 502.72 248.49 506.13 247.545 513.9C247.338 515.601 247.662 517.357 247.257 519.022C246.76 521.063 245.228 522.724 244.683 524.753C243.651 528.597 246.405 532.423 249.431 535.009C252.456 537.595 256.065 539.825 257.72 543.446C259.468 547.272 258.609 551.734 259.178 555.903C260.419 565.003 268.279 571.75 276.369 576.1C278.833 577.425 281.479 578.708 283.075 581.007C285.157 584.008 284.949 587.964 285.645 591.55C287.347 600.331 294.74 607.567 294.95 616.51C295.099 622.866 291.566 628.632 289.455 634.629C287.476 640.376 286.76 646.481 287.356 652.529C287.951 658.577 289.844 664.425 292.906 669.675C294.485 672.341 296.373 674.855 297.49 677.745C299.483 682.902 298.836 688.765 300.674 693.98C303.104 700.875 309.78 706.57 309.141 713.852C312.172 720.146 318.864 723.238 325.594 725.112L337.656 728.469C339.965 729.112 342.379 729.76 344.73 729.295C347.082 728.829 349.326 726.876 349.266 724.48C343.351 723.146 337.246 721.727 332.371 718.123C327.495 714.519 324.155 708.1 326.005 702.326C326.862 699.649 328.687 696.557 326.952 694.344C325.959 693.078 324.142 692.747 323.022 691.591C321.274 689.788 321.875 686.76 323.131 684.586C324.388 682.412 326.204 680.47 326.71 678.01C326.966 676.635 326.795 675.214 326.221 673.938C325.646 672.662 324.695 671.592 323.495 670.873C325.731 670.028 327.765 668.723 329.465 667.042C331.035 665.249 331.76 662.485 330.525 660.447C334.192 660.912 338.522 661.14 340.93 658.334C342.852 656.094 342.72 652.745 341.961 649.892C341.201 647.039 339.917 644.268 339.877 641.316C348.337 641.717 356.816 641.43 365.23 640.457C364.013 636.359 361.248 632.897 357.522 630.803C361.332 630.158 364.804 625.596 366.008 621.924C367.212 618.252 366.905 614.251 366.161 610.459C365.875 609.482 365.836 608.45 366.047 607.455C366.476 606.088 367.819 605.253 369.062 604.539L387.976 593.677C389.105 593.111 390.128 592.356 391.001 591.444C392.983 589.116 392.689 585.602 391.674 582.719C390.66 579.835 389.034 577.123 388.643 574.091C387.474 565.024 397.181 558.518 400.457 549.982C401.742 546.633 402.004 542.992 402.253 539.412C402.52 535.568 402.54 531.103 399.589 528.625C396.759 526.251 392.338 526.78 389.377 524.571C386.663 522.546 385.726 518.613 382.761 516.977C380.068 515.492 376.691 516.437 373.696 515.738C368.422 514.508 365.104 508.43 359.718 507.867C356.679 507.55 353.24 509.035 350.749 507.265C348.555 505.706 348.467 502.572 348.049 499.912C347.317 495.779 345.336 491.969 342.372 488.996C339.409 486.023 335.605 484.029 331.474 483.284C328.341 482.781 324.931 482.972 322.265 481.25C319.566 479.507 318.329 476.243 316.209 473.828C312.792 469.937 307.41 468.554 302.369 467.369L281.863 462.548C278.223 461.693 273.531 461.239 271.578 464.428C271 465.642 270.59 466.929 270.361 468.254C269.629 470.651 268.156 472.754 266.154 474.262C264.151 475.769 261.723 476.602 259.217 476.642C257.498 473.711 254.714 471.557 251.445 470.629C249.366 470.05 247.14 469.985 245.157 469.133C244.077 468.606 243.116 467.864 242.333 466.952C241.549 466.041 240.96 464.979 240.602 463.832C240.243 462.685 240.122 461.477 240.246 460.281C240.371 459.086 240.738 457.929 241.325 456.88C242.507 454.775 242.963 452.34 242.624 449.95C242.284 447.559 241.168 445.347 239.446 443.655C235.959 440.524 230.914 439.768 226.238 440.081C225.014 437.409 227.061 434.394 229.268 432.452C231.475 430.51 234.154 428.601 234.635 425.701C235.39 421.14 229.57 417.675 225.151 419.036C220.732 420.396 217.912 424.688 216.047 428.919C214.977 431.347 214.068 433.903 212.38 435.95C210.693 437.997 207.976 439.463 205.405 438.806C201.767 437.876 200.361 433.553 199.556 429.884C198.475 424.962 197.389 419.972 197.615 414.939C197.841 409.905 199.538 404.736 203.25 401.328C209.299 395.775 218.578 396.319 226.742 397.205C224.813 395.032 225.29 391.37 227.353 389.325C228.443 388.357 229.752 387.669 231.167 387.322C232.582 386.974 234.06 386.977 235.474 387.33C237.934 387.842 240.15 389.167 241.765 391.091C244.085 393.92 244.745 397.738 246.498 400.949C248.252 404.159 252.194 406.897 255.421 405.175C258.209 403.687 258.651 399.822 257.958 396.74C257.264 393.657 255.79 390.66 256.042 387.51C256.521 381.501 262.751 377.883 268.248 375.408C273.745 372.933 280.04 369.605 280.911 363.639C280.941 362.471 281.161 361.316 281.563 360.219C282.173 359.25 283.02 358.453 284.025 357.904C300.069 347.301 316.379 336.569 334.717 330.776C335.671 330.474 335.783 330.809 336.755 330.573C338.116 329.787 337.214 327.611 335.91 326.734C334.605 325.858 332.861 325.186 332.53 323.65C332.287 322.52 332.952 321.411 333.125 320.269C333.55 317.462 330.192 314.87 327.584 315.992C326.111 314.042 329.026 311.775 331.383 311.126C338.46 309.178 345.724 307.992 353.053 307.586C353.899 307.452 354.765 307.599 355.519 308.005C356.75 308.858 356.593 310.814 355.72 312.031C354.848 313.248 353.491 314.012 352.404 315.042C351.216 316.199 350.369 317.66 349.955 319.266C349.541 320.871 349.576 322.56 350.056 324.147C353.882 326.093 358.041 328.096 362.279 327.411C366.516 326.725 370.277 321.964 368.285 318.162C366.431 314.621 360.859 313.822 359.901 309.941C358.779 305.397 365.211 301.356 363.763 296.906C363.128 294.956 361.185 293.809 359.694 292.402C357.934 290.676 356.736 288.459 356.259 286.04C355.782 283.622 356.047 281.115 357.02 278.85C354.592 279.277 352.097 279.116 349.744 278.38C347.391 277.643 345.249 276.354 343.497 274.619C340.263 271.354 337.682 266.205 333.089 266.351C328.875 266.485 325.244 271.402 321.303 269.902C320.333 269.533 319.311 268.782 318.372 269.222C318.064 269.422 317.805 269.689 317.616 270.004C317.427 270.318 317.311 270.671 317.278 271.037C316.277 275.825 318 281.281 315.39 285.419C312.55 289.922 305.981 290.546 302.538 294.606C300.669 296.81 299.945 299.78 298.227 302.104C296.51 304.428 292.863 305.905 290.802 303.88C291.815 301.797 292.092 299.432 291.587 297.172C291.082 294.911 289.825 292.889 288.022 291.435C286.108 290.186 284.044 289.183 281.88 288.448C279.462 287.424 277.162 286.142 275.02 284.624C273.946 283.977 273.074 283.044 272.501 281.929C272.047 280.534 272.108 279.022 272.673 277.668C273.719 274.67 275.563 272.016 278.007 269.99C280.45 267.965 283.401 266.645 286.54 266.174C289.285 265.8 292.48 265.932 294.296 263.841C295.258 262.734 295.762 261.061 297.157 260.611C298.049 260.432 298.976 260.546 299.798 260.937L310.043 264.543C311.186 265.059 312.445 265.267 313.693 265.146C314.312 265.063 314.877 264.749 315.274 264.266C315.67 263.784 315.87 263.17 315.833 262.546C315.505 260.845 312.887 260.028 313.126 258.312C313.259 257.756 313.558 257.253 313.983 256.871C317.681 252.935 322.202 249.866 327.225 247.883C332.247 245.899 337.646 245.051 343.034 245.398C344.328 247.522 342.282 250.037 340.581 251.85C338.879 253.663 337.512 256.903 339.569 258.298C340.413 258.729 341.351 258.94 342.297 258.913C344.82 259.254 347.271 259.998 349.558 261.115C353.099 262.656 356.571 264.341 359.975 266.172C359.675 263.927 359.388 261.563 360.238 259.464C361.089 257.365 363.507 255.719 365.62 256.536C367.655 257.324 368.699 260.019 370.868 260.266C373.76 260.595 374.902 256.322 373.693 253.673C372.485 251.024 370.093 248.806 369.893 245.901C369.759 243.942 370.504 241.511 368.939 240.325C368.382 239.969 367.75 239.747 367.092 239.677L328.008 232.485C325.687 232.058 322.334 232.385 322.231 234.743C322.174 236.059 323.349 237.361 322.829 238.571C322.273 239.862 320.447 239.744 319.118 240.201C317.055 240.91 316.019 243.359 316.218 245.532C316.58 247.69 317.416 249.742 318.666 251.539C316.123 250.476 312.274 250.281 309.732 249.217Z" fill="white" stroke="rgba(0,0,0,0.2)" stroke-width="2" mask="url(#path-3-inside-1)"/>
</g>
<g id="Vector_3">
<mask id="path-4-inside-2" fill="white">
<path d="M278.547 216.04C276.082 215.224 273.427 215.186 270.94 215.931C268.453 216.676 266.255 218.168 264.644 220.204C264.001 221.051 263.46 222.219 263.999 223.136C264.772 224.452 266.74 223.932 268.191 223.462C270.323 222.7 272.645 222.644 274.811 223.304C276.174 223.772 277.393 224.598 278.761 225.049C279.428 225.327 280.157 225.419 280.871 225.315C281.586 225.21 282.258 224.913 282.817 224.456C283.756 223.498 283.815 222.009 283.817 220.667C283.882 220.219 283.846 219.761 283.712 219.328C283.577 218.894 283.348 218.497 283.04 218.163C282.493 217.846 281.877 217.664 281.245 217.632C279.829 217.37 278.549 216.622 277.625 215.517"/>
</mask>
<path d="M278.547 216.04C276.082 215.224 273.427 215.186 270.94 215.931C268.453 216.676 266.255 218.168 264.644 220.204C264.001 221.051 263.46 222.219 263.999 223.136C264.772 224.452 266.74 223.932 268.191 223.462C270.323 222.7 272.645 222.644 274.811 223.304C276.174 223.772 277.393 224.598 278.761 225.049C279.428 225.327 280.157 225.419 280.871 225.315C281.586 225.21 282.258 224.913 282.817 224.456C283.756 223.498 283.815 222.009 283.817 220.667C283.882 220.219 283.846 219.761 283.712 219.328C283.577 218.894 283.348 218.497 283.04 218.163C282.493 217.846 281.877 217.664 281.245 217.632C279.829 217.37 278.549 216.622 277.625 215.517" fill="white"/>
<path d="M264.644 220.204L263.86 219.583L263.854 219.591L263.848 219.599L264.644 220.204ZM263.999 223.136L263.137 223.643L263.137 223.643L263.999 223.136ZM268.191 223.462L268.499 224.413L268.513 224.408L268.527 224.403L268.191 223.462ZM274.811 223.304L275.136 222.358L275.119 222.352L275.103 222.347L274.811 223.304ZM278.761 225.049L279.147 224.126L279.111 224.111L279.074 224.099L278.761 225.049ZM282.817 224.456L283.451 225.229L283.493 225.195L283.531 225.156L282.817 224.456ZM283.817 220.667L282.827 220.524L282.817 220.595L282.817 220.666L283.817 220.667ZM283.04 218.163L283.775 217.485L283.673 217.374L283.542 217.298L283.04 218.163ZM281.245 217.632L281.063 218.615L281.128 218.628L281.195 218.631L281.245 217.632ZM278.861 215.091C276.202 214.211 273.336 214.17 270.653 214.973L271.227 216.889C273.517 216.203 275.963 216.238 278.233 216.989L278.861 215.091ZM270.653 214.973C267.969 215.777 265.598 217.386 263.86 219.583L265.429 220.824C266.912 218.949 268.936 217.575 271.227 216.889L270.653 214.973ZM263.848 219.599C263.483 220.08 263.112 220.694 262.918 221.366C262.721 222.045 262.684 222.872 263.137 223.643L264.861 222.63C264.775 222.483 264.739 222.268 264.839 221.921C264.941 221.568 265.163 221.175 265.441 220.808L263.848 219.599ZM263.137 223.643C263.791 224.756 264.934 224.998 265.872 224.968C266.799 224.939 267.775 224.648 268.499 224.413L267.882 222.511C267.156 222.746 266.422 222.95 265.809 222.969C265.207 222.988 264.98 222.832 264.861 222.63L263.137 223.643ZM268.527 224.403C270.458 223.714 272.559 223.664 274.52 224.261L275.103 222.347C272.731 221.625 270.189 221.686 267.854 222.52L268.527 224.403ZM274.487 224.25C275.095 224.458 275.68 224.75 276.339 225.078C276.977 225.396 277.686 225.747 278.449 225.998L279.074 224.099C278.468 223.899 277.884 223.613 277.23 223.288C276.596 222.972 275.891 222.617 275.136 222.358L274.487 224.25ZM278.375 225.971C279.209 226.32 280.122 226.435 281.016 226.304L280.727 224.325C280.192 224.403 279.646 224.335 279.147 224.126L278.375 225.971ZM281.016 226.304C281.91 226.174 282.752 225.802 283.451 225.229L282.183 223.682C281.765 224.025 281.262 224.247 280.727 224.325L281.016 226.304ZM283.531 225.156C284.181 224.493 284.494 223.677 284.649 222.902C284.803 222.136 284.816 221.34 284.817 220.669L282.817 220.666C282.816 221.336 282.799 221.955 282.688 222.509C282.579 223.053 282.392 223.461 282.103 223.756L283.531 225.156ZM284.806 220.811C284.893 220.215 284.845 219.607 284.667 219.031L282.757 219.624C282.847 219.915 282.871 220.222 282.827 220.524L284.806 220.811ZM284.667 219.031C284.488 218.456 284.184 217.928 283.775 217.485L282.306 218.841C282.512 219.065 282.666 219.333 282.757 219.624L284.667 219.031ZM283.542 217.298C282.856 216.901 282.086 216.673 281.295 216.633L281.195 218.631C281.668 218.655 282.129 218.791 282.539 219.029L283.542 217.298ZM281.427 216.649C280.24 216.429 279.167 215.802 278.393 214.876L276.858 216.159C277.931 217.442 279.418 218.311 281.063 218.615L281.427 216.649Z" fill="rgba(0,0,0,0.2)" mask="url(#path-4-inside-2)"/>
</g>
<g id="Vector_4">
<mask id="path-6-inside-3" fill="white">
<path d="M292.64 212.116C292.088 212.086 291.538 212.199 291.043 212.443C290.547 212.687 290.123 213.054 289.81 213.509C289.498 213.965 289.307 214.493 289.258 215.043C289.209 215.593 289.302 216.147 289.528 216.651C291.222 217.113 292.991 217.228 294.731 216.99C295.599 216.855 296.407 216.467 297.054 215.873C297.701 215.28 298.158 214.508 298.368 213.656C296.32 214.028 294.206 213.625 292.44 212.524"/>
</mask>
<path d="M292.64 212.116C292.088 212.086 291.538 212.199 291.043 212.443C290.547 212.687 290.123 213.054 289.81 213.509C289.498 213.965 289.307 214.493 289.258 215.043C289.209 215.593 289.302 216.147 289.528 216.651C291.222 217.113 292.991 217.228 294.731 216.99C295.599 216.855 296.407 216.467 297.054 215.873C297.701 215.28 298.158 214.508 298.368 213.656C296.32 214.028 294.206 213.625 292.44 212.524" fill="white"/>
<path d="M289.528 216.651L288.616 217.061L288.809 217.491L289.265 217.615L289.528 216.651ZM294.731 216.99L294.867 217.981L294.875 217.979L294.884 217.978L294.731 216.99ZM298.368 213.656L299.339 213.894L299.707 212.396L298.189 212.672L298.368 213.656ZM292.694 211.118C291.971 211.078 291.25 211.226 290.601 211.545L291.484 213.34C291.826 213.172 292.205 213.094 292.585 213.115L292.694 211.118ZM290.601 211.545C289.951 211.865 289.395 212.347 288.986 212.943L290.635 214.075C290.85 213.761 291.143 213.508 291.484 213.34L290.601 211.545ZM288.986 212.943C288.576 213.54 288.327 214.233 288.262 214.954L290.254 215.133C290.288 214.753 290.419 214.389 290.635 214.075L288.986 212.943ZM288.262 214.954C288.197 215.675 288.319 216.4 288.616 217.061L290.44 216.241C290.284 215.893 290.22 215.512 290.254 215.133L288.262 214.954ZM289.265 217.615C291.088 218.113 292.994 218.237 294.867 217.981L294.595 215.999C292.989 216.219 291.355 216.112 289.791 215.686L289.265 217.615ZM294.884 217.978C295.947 217.813 296.937 217.337 297.73 216.61L296.378 215.136C295.877 215.596 295.25 215.897 294.578 216.002L294.884 217.978ZM297.73 216.61C298.523 215.884 299.082 214.938 299.339 213.894L297.396 213.417C297.234 214.078 296.88 214.676 296.378 215.136L297.73 216.61ZM298.189 212.672C296.385 213 294.524 212.645 292.969 211.675L291.911 213.372C293.888 214.605 296.254 215.057 298.547 214.64L298.189 212.672Z" fill="rgba(0,0,0,0.2)" mask="url(#path-6-inside-3)"/>
</g>
<path id="Vector_5" d="M333.472 220.271L333.479 220.235L333.482 220.199C333.642 217.95 333.075 215.708 331.865 213.805C330.856 212.219 329.445 210.937 327.784 210.086C331.705 208.302 335.81 206.949 340.027 206.052C341.061 205.832 342.188 205.619 343.288 205.591C344.389 205.563 345.423 205.721 346.293 206.211C347.091 206.661 347.497 207.43 347.892 208.327C347.928 208.409 347.964 208.493 348.001 208.578C348.157 208.938 348.321 209.317 348.51 209.657C348.748 210.084 349.05 210.498 349.485 210.799C351.561 212.23 353.98 211.767 356.236 210.815C357.374 210.335 358.51 209.715 359.588 209.102C359.827 208.967 360.062 208.832 360.293 208.699C361.12 208.226 361.904 207.777 362.644 207.406C373.1 202.208 384.962 200.565 396.43 202.719C396.265 203.801 395.478 204.599 394.301 205.187C392.977 205.85 391.257 206.189 389.731 206.321C383.157 206.894 376.62 207.824 370.148 209.109C369.147 209.231 368.191 209.597 367.365 210.177L367.348 210.188L367.333 210.202C366.473 210.918 366.096 211.94 365.796 212.87C365.755 212.997 365.716 213.123 365.677 213.246C365.417 214.069 365.185 214.805 364.745 215.408C364.05 216.361 363.041 216.8 361.791 216.963C360.532 217.128 359.096 217.004 357.592 216.875L357.562 216.873C356.078 216.745 354.524 216.613 353.151 216.817C351.757 217.023 350.488 217.583 349.637 218.879L349.621 218.904L349.608 218.931C349.151 219.849 348.75 220.794 348.407 221.761C347.862 222.686 347.096 223.463 346.179 224.024C345.25 224.592 344.194 224.919 343.106 224.977C340.821 225.071 338.536 224.779 336.348 224.114L336.334 224.109L336.321 224.106C335.701 223.955 335.085 223.778 334.57 223.51C334.07 223.25 333.706 222.924 333.518 222.491C333.327 221.765 333.311 221.004 333.472 220.271Z" fill="white" stroke="rgba(0,0,0,0.2)"/>
<path id="Vector_6" d="M383.814 213.29L379.667 212.494C381.925 211.377 384.378 210.893 386.927 210.59C387.904 210.474 388.903 210.385 389.91 210.294C391.96 210.111 394.045 209.924 396.038 209.506C397.709 209.155 399.056 208.482 400.313 207.785C400.549 207.654 400.781 207.523 401.011 207.393C402.017 206.824 402.98 206.279 404.079 205.871C405.657 205.284 407.459 205.056 409.342 204.954C410.282 204.903 411.232 204.884 412.18 204.865L412.208 204.865C413.143 204.847 414.076 204.828 414.976 204.779L468.556 201.842C477.698 201.341 486.835 200.843 495.913 201.597C498.543 201.815 501.164 202.197 503.079 203.743C504.008 204.493 504.683 205.639 504.918 206.816C505.153 207.99 504.942 209.138 504.189 209.963C503.735 210.461 503.137 210.807 502.449 211.16C502.346 211.212 502.241 211.265 502.135 211.319C501.549 211.614 500.91 211.936 500.354 212.366C498.487 213.807 497.904 215.969 497.954 218.208C497.999 220.241 498.564 222.401 499.226 224.301L479.006 228.078L478.817 228.113L478.7 228.266C477.997 229.19 477.971 230.298 478.257 231.311C478.541 232.319 479.147 233.292 479.81 234.048C480.037 234.307 480.264 234.554 480.488 234.796C480.919 235.263 481.336 235.715 481.706 236.207C482.254 236.935 482.629 237.667 482.689 238.481C482.757 239.421 482.364 240.31 481.676 241.054C480.986 241.799 480.022 242.369 479.032 242.651C478.021 242.938 476.964 243.024 475.862 243.049C475.451 243.058 475.022 243.059 474.587 243.06C473.89 243.061 473.177 243.062 472.491 243.099C468.424 243.319 464.682 244.753 461.079 246.526C459.503 247.302 457.945 248.147 456.396 248.986C456.175 249.106 455.953 249.227 455.732 249.346C453.961 250.305 452.198 251.244 450.409 252.067C445.723 254.222 440.745 255.61 435.729 257.009C434.571 257.332 433.41 257.656 432.251 257.99C430.566 258.475 428.754 259.07 427.173 259.958C425.589 260.848 424.205 262.051 423.42 263.766C422.664 265.416 422.602 267.302 422.544 269.047C422.536 269.271 422.529 269.492 422.52 269.711C422.441 271.691 422.253 273.437 421.154 274.783C420.319 275.807 419.129 276.373 417.75 276.675C416.366 276.978 414.836 277.005 413.367 276.984C411.344 276.954 409.248 276.875 407.321 276.447C405.404 276.022 403.691 275.259 402.398 273.891C401.061 272.236 400.099 270.311 399.577 268.249L399.573 268.231L399.567 268.214C398.632 265.387 397.734 262.38 397.453 259.462C397.171 256.549 397.509 253.766 399.002 251.358C399.606 250.385 400.375 249.524 401.195 248.649C401.311 248.525 401.428 248.401 401.546 248.276C402.251 247.528 402.98 246.756 403.614 245.911C405.092 243.943 406.146 241.052 404.865 238.68C404.619 238.227 404.294 237.812 404.001 237.438C403.937 237.357 403.875 237.278 403.815 237.201C403.466 236.747 403.188 236.338 403.046 235.88C402.845 235.232 402.928 234.547 403.129 233.771C403.202 233.489 403.287 233.21 403.374 232.92C403.408 232.809 403.442 232.696 403.476 232.581C403.596 232.173 403.714 231.746 403.789 231.312C404.294 228.396 402.81 225.923 400.581 224.187C398.355 222.454 395.32 221.395 392.511 221.277C390.525 221.193 388.501 221.361 386.519 221.526C385.759 221.589 385.005 221.652 384.263 221.699C381.67 221.866 379.167 221.857 376.784 221.13C376.755 220.3 376.882 219.472 377.16 218.688C377.474 217.8 377.974 216.99 378.627 216.31C379.279 215.631 380.069 215.099 380.943 214.749C381.817 214.399 382.756 214.239 383.697 214.281L383.814 213.29Z" fill="white" stroke="rgba(0,0,0,0.2)"/>
<path id="Vector_7" d="M476.706 256.178L476.672 256.677C480.327 256.931 483.982 256.185 487.244 254.518C487.656 254.332 488.047 254.143 488.424 253.96C489.38 253.496 490.251 253.074 491.188 252.84C492.438 252.528 493.771 252.571 495.434 253.469C496.699 254.152 497.542 254.77 498.063 255.32C498.582 255.868 498.747 256.31 498.746 256.657C498.745 257.004 498.58 257.366 498.203 257.755C497.824 258.146 497.265 258.526 496.568 258.893C495.176 259.625 493.347 260.246 491.617 260.788C491.245 260.905 490.876 261.018 490.517 261.128C489.237 261.522 488.08 261.878 487.366 262.201L487.366 262.201C486.45 262.615 485.595 263.203 484.787 263.758C484.548 263.922 484.314 264.084 484.083 264.236C483.047 264.923 482.056 265.472 480.944 265.617C480.021 265.694 479.093 265.523 478.257 265.123C477.42 264.721 476.705 264.103 476.187 263.332C475.141 261.714 474.745 259.76 475.078 257.862L475.083 257.834L475.084 257.806C475.105 257.48 475.229 257.17 475.439 256.921C475.791 256.696 476.214 256.607 476.628 256.672L476.706 256.178Z" fill="white" stroke="rgba(0,0,0,0.2)"/>
<path id="Vector_8" d="M567.145 210.045L567.163 210.038L567.18 210.03C569.492 208.876 575.441 207.329 581.239 206.767C584.131 206.487 586.948 206.457 589.227 206.831C591.535 207.209 593.147 207.979 593.838 209.162C594.26 209.886 594.398 210.529 594.362 211.099C594.326 211.672 594.111 212.21 593.766 212.715C593.066 213.741 591.87 214.576 590.771 215.192C590.047 215.599 589.537 215.788 589.156 215.893C588.964 215.946 588.798 215.979 588.644 216.008C588.619 216.013 588.595 216.017 588.57 216.022C588.442 216.045 588.307 216.07 588.18 216.103C587.835 216.192 587.533 216.345 587.205 216.691C586.901 217.011 586.574 217.499 586.143 218.242C585.809 218.817 585.706 219.4 585.665 219.927C585.649 220.144 585.642 220.361 585.636 220.561C585.635 220.6 585.634 220.639 585.632 220.677C585.625 220.914 585.615 221.127 585.589 221.327C585.538 221.718 585.43 222.026 585.182 222.292C584.929 222.565 584.481 222.843 583.654 223.067C582.097 223.358 580.495 223.305 578.96 222.911L578.92 222.901L578.878 222.897C578.377 222.855 577.899 222.671 577.498 222.367C577.131 222.005 577.064 221.481 577.103 220.7C577.11 220.563 577.121 220.406 577.133 220.242C577.151 219.988 577.17 219.717 577.177 219.474C577.189 219.049 577.17 218.593 577.047 218.151C576.709 216.938 575.755 216.236 574.695 215.836C573.639 215.438 572.406 215.31 571.347 215.278L566.455 215.132L566.439 215.132L566.424 215.132C566.025 215.145 565.628 215.085 565.252 214.955C564.828 214.69 564.516 214.277 564.38 213.794C564.24 213.3 564.295 212.771 564.532 212.316C565.129 211.292 566.048 210.494 567.145 210.045Z" fill="white" stroke="rgba(0,0,0,0.2)"/>
<path id="Vector_9" d="M654.793 213.039L654.78 213.035L654.766 213.032C653.21 212.662 651.622 212.436 650.024 212.356C647.713 212.112 645.437 211.611 643.24 210.861C648.924 209.246 654.827 208.455 660.741 207.666L660.675 207.171L660.741 207.666L663.581 207.287C663.813 207.256 664.089 207.214 664.396 207.168C665.788 206.958 667.831 206.651 669.41 206.782C669.885 206.821 670.29 206.899 670.609 207.019C670.928 207.139 671.125 207.288 671.234 207.448C671.425 207.729 671.502 208.323 670.72 209.562C670.722 209.559 670.723 209.558 670.723 209.558C670.722 209.557 670.69 209.593 670.586 209.661C670.475 209.733 670.322 209.816 670.13 209.908C669.747 210.091 669.254 210.289 668.728 210.493C668.578 210.552 668.424 210.611 668.27 210.67C667.895 210.814 667.519 210.958 667.182 211.096C666.717 211.286 666.276 211.482 665.995 211.669C665.342 212.104 664.859 212.708 664.43 213.243C664.363 213.328 664.296 213.41 664.231 213.491C663.732 214.102 663.258 214.606 662.566 214.888C661.425 215.353 660.229 215.15 658.908 214.671C658.354 214.471 657.799 214.231 657.227 213.983C657.117 213.935 657.006 213.887 656.894 213.839C656.212 213.545 655.505 213.251 654.793 213.039Z" fill="white" stroke="rgba(0,0,0,0.2)"/>
<path id="Vector_10" d="M663.428 231.989L663.428 231.989C663.496 233.016 664.074 233.86 664.96 234.584C665.851 235.312 667.004 235.879 668.115 236.35L676.79 240.023C677.033 239.481 677.028 238.852 676.837 238.168C676.603 237.329 676.105 236.468 675.555 235.732C675.531 235.7 675.507 235.667 675.483 235.635C674.938 234.906 674.32 234.078 673.896 233.203C673.45 232.283 673.189 231.252 673.485 230.173C673.823 228.938 674.742 228.143 675.793 227.622C676.839 227.103 678.072 226.824 679.156 226.642C679.722 226.546 680.45 226.466 681.248 226.378C681.699 226.329 682.171 226.276 682.65 226.218C683.999 226.052 685.436 225.831 686.721 225.46C688.016 225.086 689.097 224.577 689.785 223.873C690.445 223.198 690.776 222.315 690.524 221.067C690.221 219.56 689.433 218.661 688.378 218.148C687.296 217.621 685.891 217.483 684.358 217.613C681.294 217.873 677.939 219.185 676.233 220.138L663.428 231.989ZM663.428 231.989C663.377 231.215 663.637 230.473 664.094 229.754C664.552 229.032 665.19 228.362 665.848 227.744M663.428 231.989L665.848 227.744M665.848 227.744C668.987 224.794 672.474 222.24 676.233 220.139L665.848 227.744Z" fill="white" stroke="rgba(0,0,0,0.2)"/>
<path id="Vector_11" d="M689.655 600.135L689.648 600.143L689.641 600.152C687.809 602.381 685.325 603.979 682.537 604.724C679.778 605.31 676.657 604.423 675.125 602.183C673.753 600.179 673.799 597.415 674.636 594.993C675.572 592.282 677.061 589.789 678.602 587.249C678.65 587.169 678.699 587.089 678.748 587.008C680.233 584.56 681.751 582.059 682.771 579.331C683.189 578.215 683.528 577.155 683.848 576.147C683.864 576.096 683.88 576.046 683.896 575.996C684.2 575.039 684.488 574.131 684.817 573.246C685.506 571.392 686.368 569.654 687.887 567.891C688.347 567.357 688.93 566.505 689.56 565.541C689.919 564.991 690.302 564.39 690.693 563.778C690.988 563.316 691.287 562.847 691.582 562.39C692.275 561.317 692.957 560.291 693.567 559.479C693.872 559.074 694.154 558.729 694.404 558.462C694.661 558.188 694.859 558.025 694.995 557.951L694.758 557.515L694.995 557.951C696.421 557.176 697.358 557.253 697.998 557.66C698.685 558.096 699.195 559.006 699.528 560.236C700.19 562.68 700.046 565.963 699.741 567.565L696.921 582.369L696.919 582.379L696.918 582.389C696.332 586.291 695.288 590.11 693.809 593.769C692.758 596.091 691.358 598.238 689.655 600.135Z" fill="white" stroke="rgba(0,0,0,0.2)"/>
<g id="Vector_12">
<mask id="path-15-inside-4" fill="white">
<path d="M995.345 670.587C993.355 669.81 991.424 668.891 989.567 667.836C987.704 672.956 986.714 678.353 986.637 683.801L1000.25 676.096C1002.3 674.937 1004.62 673.326 1004.58 670.973C1004.6 670.683 1004.54 670.393 1004.4 670.133C1004.27 669.874 1004.07 669.655 1003.83 669.5C1003.52 669.378 1003.19 669.34 1002.87 669.388C1000.85 669.556 999.012 670.55 997.107 671.24C995.203 671.931 992.975 672.296 991.228 671.271"/>
</mask>
<path d="M995.345 670.587C993.355 669.81 991.424 668.891 989.567 667.836C987.704 672.956 986.714 678.353 986.637 683.801L1000.25 676.096C1002.3 674.937 1004.62 673.326 1004.58 670.973C1004.6 670.683 1004.54 670.393 1004.4 670.133C1004.27 669.874 1004.07 669.655 1003.83 669.5C1003.52 669.378 1003.19 669.34 1002.87 669.388C1000.85 669.556 999.012 670.55 997.107 671.24C995.203 671.931 992.975 672.296 991.228 671.271" fill="white"/>
<path d="M989.567 667.836L990.061 666.966L989.031 666.382L988.627 667.494L989.567 667.836ZM986.637 683.801L985.637 683.787L985.613 685.529L987.13 684.671L986.637 683.801ZM1000.25 676.096L999.761 675.225L999.761 675.226L1000.25 676.096ZM1004.58 670.973L1003.58 670.91L1003.58 670.951L1003.58 670.992L1004.58 670.973ZM1003.83 669.5L1004.36 668.654L1004.28 668.606L1004.2 668.572L1003.83 669.5ZM1002.87 669.388L1002.95 670.384L1002.99 670.382L1003.02 670.377L1002.87 669.388ZM995.709 669.655C993.764 668.896 991.876 667.997 990.061 666.966L989.073 668.705C990.972 669.784 992.947 670.724 994.982 671.518L995.709 669.655ZM988.627 667.494C986.726 672.719 985.716 678.227 985.637 683.787L987.637 683.815C987.712 678.479 988.682 673.193 990.506 668.178L988.627 667.494ZM987.13 684.671L1000.75 676.966L999.761 675.226L986.145 682.93L987.13 684.671ZM1000.75 676.966C1001.79 676.377 1002.98 675.629 1003.91 674.685C1004.85 673.733 1005.61 672.497 1005.58 670.955L1003.58 670.992C1003.59 671.803 1003.21 672.548 1002.49 673.28C1001.76 674.019 1000.77 674.656 999.761 675.225L1000.75 676.966ZM1005.58 671.037C1005.61 670.567 1005.51 670.098 1005.3 669.678L1003.51 670.588C1003.57 670.688 1003.59 670.799 1003.58 670.91L1005.58 671.037ZM1005.3 669.678C1005.08 669.259 1004.76 668.905 1004.36 668.654L1003.29 670.346C1003.39 670.405 1003.46 670.489 1003.51 670.588L1005.3 669.678ZM1004.2 668.572C1003.73 668.384 1003.22 668.324 1002.72 668.399L1003.02 670.377C1003.17 670.355 1003.32 670.373 1003.45 670.428L1004.2 668.572ZM1002.79 668.391C1001.65 668.487 1000.58 668.813 999.596 669.182C999.104 669.366 998.616 669.566 998.149 669.757C997.676 669.951 997.221 670.135 996.766 670.3L997.448 672.18C997.945 672 998.435 671.801 998.906 671.609C999.383 671.414 999.839 671.226 1000.3 671.055C1001.21 670.712 1002.08 670.457 1002.95 670.384L1002.79 668.391ZM996.766 670.3C994.919 670.97 993.074 671.195 991.734 670.409L990.722 672.134C992.877 673.398 995.486 672.892 997.448 672.18L996.766 670.3Z" fill="rgba(0,0,0,0.2)" mask="url(#path-15-inside-4)"/>
</g>
<path id="Vector_13" d="M1067.3 675.643L1067.31 675.64L1067.33 675.637C1068.08 675.393 1068.99 674.921 1069.95 674.386C1070.36 674.163 1070.76 673.93 1071.18 673.693C1071.78 673.35 1072.39 672.999 1073.02 672.659C1074.07 672.091 1075.1 671.584 1076.04 671.261C1077 670.934 1077.79 670.82 1078.38 670.959L1078.5 670.472L1078.38 670.959C1079.21 671.151 1079.79 671.504 1080.16 671.931C1080.54 672.358 1080.74 672.887 1080.78 673.479C1080.87 674.674 1080.28 676.116 1079.1 677.283C1077.97 678.267 1076.67 679.042 1075.26 679.572L1075.25 679.577L1075.24 679.583C1071.22 681.38 1067.1 683.267 1063.65 686.141L1063.64 686.152L1063.63 686.164C1062.25 687.486 1060.76 688.673 1059.16 689.711C1056.41 691.223 1053.07 691.205 1049.75 691.132L1049.73 691.131L1049.7 691.133C1048.56 691.219 1047.41 690.964 1046.41 690.402C1046.03 690.117 1045.74 689.644 1045.65 689.157C1045.56 688.703 1045.65 688.308 1045.9 688.043C1049.03 686.988 1052.31 685.868 1055.04 683.832C1056.19 682.976 1057.23 681.964 1058.25 680.982C1058.5 680.736 1058.75 680.492 1059 680.252C1060.27 679.045 1061.53 677.938 1063.02 677.179C1064.41 676.556 1065.84 676.042 1067.3 675.643Z" fill="white" stroke="rgba(0,0,0,0.2)"/>
<g id="Vector_14">
<mask id="path-18-inside-5" fill="white">
<path d="M1098.91 654.43C1099.07 652.717 1098.84 650.989 1098.24 649.377C1097.64 647.765 1096.68 646.31 1095.43 645.124C1095.4 648.551 1095.29 652.203 1093.36 655.037C1091.99 657.057 1089.84 658.421 1088.33 660.345C1086.83 662.268 1086.16 665.318 1087.92 667.006C1089.05 667.864 1090.43 668.338 1091.84 668.356C1095.36 668.77 1099.42 669 1101.89 666.462C1103.23 665.076 1103.89 663.024 1105.53 662.005C1106.14 661.749 1106.69 661.358 1107.13 660.862C1107.8 659.785 1106.73 658.366 1105.52 657.978C1104.3 657.59 1102.97 657.773 1101.75 657.404C1100.53 657.036 1099.42 655.666 1100.04 654.558"/>
</mask>
<path d="M1098.91 654.43C1099.07 652.717 1098.84 650.989 1098.24 649.377C1097.64 647.765 1096.68 646.31 1095.43 645.124C1095.4 648.551 1095.29 652.203 1093.36 655.037C1091.99 657.057 1089.84 658.421 1088.33 660.345C1086.83 662.268 1086.16 665.318 1087.92 667.006C1089.05 667.864 1090.43 668.338 1091.84 668.356C1095.36 668.77 1099.42 669 1101.89 666.462C1103.23 665.076 1103.89 663.024 1105.53 662.005C1106.14 661.749 1106.69 661.358 1107.13 660.862C1107.8 659.785 1106.73 658.366 1105.52 657.978C1104.3 657.59 1102.97 657.773 1101.75 657.404C1100.53 657.036 1099.42 655.666 1100.04 654.558" fill="white"/>
<path d="M1095.43 645.124L1096.12 644.399L1094.46 642.815L1094.43 645.113L1095.43 645.124ZM1093.36 655.037L1094.19 655.6L1094.19 655.6L1093.36 655.037ZM1087.92 667.006L1087.23 667.728L1087.27 667.767L1087.32 667.801L1087.92 667.006ZM1091.84 668.356L1091.96 667.363L1091.91 667.357L1091.86 667.356L1091.84 668.356ZM1101.89 666.462L1102.61 667.158L1102.61 667.158L1101.89 666.462ZM1105.53 662.005L1105.14 661.083L1105.07 661.114L1105 661.156L1105.53 662.005ZM1107.13 660.862L1107.87 661.526L1107.93 661.465L1107.97 661.395L1107.13 660.862ZM1099.9 654.525C1100.08 652.661 1099.83 650.781 1099.18 649.027L1097.3 649.727C1097.85 651.197 1098.06 652.773 1097.91 654.335L1099.9 654.525ZM1099.18 649.027C1098.52 647.273 1097.48 645.691 1096.12 644.399L1094.74 645.848C1095.88 646.93 1096.76 648.257 1097.3 649.727L1099.18 649.027ZM1094.43 645.113C1094.39 648.594 1094.27 651.93 1092.54 654.475L1094.19 655.6C1096.31 652.476 1096.4 648.509 1096.43 645.135L1094.43 645.113ZM1092.54 654.475C1091.92 655.38 1091.12 656.158 1090.22 656.994C1089.34 657.807 1088.36 658.69 1087.54 659.729L1089.12 660.961C1089.81 660.076 1090.66 659.315 1091.58 658.46C1092.47 657.628 1093.43 656.714 1094.19 655.6L1092.54 654.475ZM1087.54 659.729C1086.69 660.822 1086.06 662.237 1085.91 663.654C1085.75 665.077 1086.06 666.608 1087.23 667.728L1088.61 666.283C1088.02 665.715 1087.78 664.878 1087.9 663.874C1088.01 662.862 1088.47 661.791 1089.12 660.961L1087.54 659.729ZM1087.32 667.801C1088.62 668.79 1090.2 669.335 1091.83 669.356L1091.86 667.356C1090.65 667.34 1089.49 666.939 1088.53 666.21L1087.32 667.801ZM1091.73 669.349C1093.49 669.557 1095.49 669.732 1097.38 669.509C1099.28 669.285 1101.16 668.649 1102.61 667.158L1101.17 665.765C1100.15 666.813 1098.77 667.331 1097.14 667.523C1095.5 667.716 1093.71 667.569 1091.96 667.363L1091.73 669.349ZM1102.61 667.158C1103.37 666.377 1103.94 665.392 1104.43 664.646C1104.96 663.846 1105.43 663.241 1106.06 662.855L1105 661.156C1103.98 661.788 1103.31 662.718 1102.76 663.545C1102.18 664.426 1101.76 665.161 1101.17 665.765L1102.61 667.158ZM1105.92 662.927C1106.67 662.613 1107.33 662.134 1107.87 661.526L1106.38 660.198C1106.04 660.582 1105.62 660.884 1105.14 661.083L1105.92 662.927ZM1107.97 661.395C1108.58 660.425 1108.34 659.373 1107.88 658.632C1107.42 657.898 1106.66 657.294 1105.82 657.026L1105.21 658.931C1105.59 659.051 1105.97 659.35 1106.18 659.692C1106.39 660.027 1106.35 660.222 1106.28 660.33L1107.97 661.395ZM1105.82 657.026C1105.09 656.791 1104.33 656.735 1103.71 656.687C1103.05 656.636 1102.53 656.594 1102.04 656.447L1101.46 658.361C1102.19 658.583 1102.94 658.634 1103.56 658.681C1104.21 658.731 1104.73 658.778 1105.21 658.931L1105.82 657.026ZM1102.04 656.447C1101.66 656.33 1101.26 656.038 1101.04 655.702C1100.81 655.371 1100.85 655.167 1100.91 655.049L1099.17 654.067C1098.61 655.058 1098.89 656.092 1099.37 656.816C1099.86 657.533 1100.63 658.11 1101.46 658.361L1102.04 656.447Z" fill="rgba(0,0,0,0.2)" mask="url(#path-18-inside-5)"/>
</g>
<path id="Vector_15" d="M1044.4 545.589C1046.33 548.262 1048.95 550.333 1051.98 551.579C1050.78 551.877 1049.51 551.783 1048.23 551.413C1046.51 550.915 1044.82 549.923 1043.4 548.77C1042.69 548.189 1042 547.563 1041.3 546.924C1041.18 546.816 1041.07 546.708 1040.95 546.599C1040.37 546.067 1039.79 545.529 1039.19 545.013C1037.76 543.769 1036.22 542.617 1034.4 541.89C1032.03 540.939 1029.53 540.839 1027.04 541.005C1025.8 541.088 1024.56 541.237 1023.33 541.384L1023.31 541.387C1022.07 541.536 1020.85 541.682 1019.64 541.761C1015.93 542.006 1011.92 541.329 1009.84 538.532L1009.44 538.83L1009.84 538.532C1009.33 537.846 1008.96 537.064 1008.63 536.224C1008.5 535.898 1008.37 535.55 1008.24 535.195C1008.04 534.67 1007.84 534.131 1007.63 533.631L1007.63 533.629C1005.99 529.854 1003.05 526.796 999.344 525.013L999.342 525.013C998.217 524.477 997.042 524.07 995.897 523.674C995.869 523.664 995.84 523.654 995.812 523.644C994.63 523.235 993.482 522.834 992.396 522.304C990.458 521.357 988.721 519.879 988.081 518.001C991.269 518.505 994.481 518.36 997.664 518.095C998.45 518.029 999.232 517.956 1000.01 517.884C1002.67 517.637 1005.3 517.393 1007.92 517.442C1015.36 517.602 1022.56 520.116 1028.47 524.623C1028.9 524.948 1029.33 525.292 1029.77 525.642C1030.6 526.304 1031.45 526.984 1032.31 527.58C1033.66 528.503 1035.12 529.278 1036.78 529.583L1036.79 529.586L1036.81 529.588C1038.74 529.823 1040.71 529.708 1042.61 529.249C1043.13 529.152 1043.84 528.966 1044.61 528.761C1044.9 528.684 1045.21 528.604 1045.51 528.525C1046.67 528.229 1047.92 527.937 1049.09 527.805C1050.27 527.672 1051.3 527.711 1052.04 528.017C1052.4 528.165 1052.68 528.374 1052.89 528.651C1053.09 528.928 1053.24 529.302 1053.28 529.816C1053.4 531.04 1052.97 531.939 1052.22 532.628C1051.44 533.336 1050.3 533.836 1048.98 534.169C1046.36 534.836 1043.25 534.793 1041.65 534.646L1041.11 534.596L1041.1 535.138C1041.06 538.885 1042.22 542.547 1044.4 545.589Z" fill="white" stroke="rgba(0,0,0,0.2)"/>
<path id="Vector_16" d="M990.392 555.936L990.412 555.937L990.432 555.937C991.487 555.907 992.532 555.748 993.54 555.594C993.637 555.579 993.734 555.564 993.83 555.549C994.941 555.381 996.011 555.235 997.081 555.26C998.132 555.284 999.23 555.545 1000.13 556.037C1001.04 556.529 1001.72 557.236 1002.01 558.149C1002.44 559.485 1001.98 560.796 1001.24 562.275C1001.1 562.567 1000.93 562.88 1000.77 563.2C1000.53 563.642 1000.29 564.097 1000.09 564.531C999.713 565.308 999.385 566.127 999.228 566.987C998.519 570.872 1000.48 573.897 1003.22 575.138C1005.96 576.381 1009.45 575.82 1011.71 572.65L1011.3 572.36L1011.71 572.65C1012.46 571.597 1013.11 569.781 1013.73 567.718C1014.04 566.702 1014.35 565.605 1014.66 564.482L1014.69 564.392C1015.01 563.236 1015.35 562.052 1015.7 560.89C1016.4 558.558 1017.17 556.339 1018.08 554.626C1019 552.887 1019.99 551.8 1021.07 551.517C1021.75 551.34 1022.42 551.592 1023 552.157C1023.59 552.724 1024.03 553.559 1024.2 554.374C1024.34 555.063 1024.39 555.767 1024.43 556.509C1024.44 556.698 1024.45 556.889 1024.47 557.083C1024.53 558.019 1024.64 559.003 1025.02 559.94C1025.62 561.429 1026.77 562.494 1027.93 563.443C1028.17 563.644 1028.42 563.839 1028.66 564.032C1029.59 564.772 1030.48 565.477 1031.18 566.342C1032.89 568.449 1033.24 571.086 1033.24 574.003C1033.25 574.877 1033.22 575.75 1033.19 576.635C1033.17 577.239 1033.15 577.848 1033.14 578.468C1033.12 579.974 1033.15 581.496 1033.39 582.966C1034 586.796 1035.98 590.058 1038.18 593.17C1038.7 593.91 1039.23 594.64 1039.76 595.367C1041.48 597.724 1043.17 600.052 1044.41 602.597C1049.86 613.746 1044.51 628.9 1033.28 634.17C1032.95 634.328 1032.59 634.487 1032.23 634.651C1030.85 635.278 1029.35 635.961 1028.1 636.811C1026.5 637.891 1025.19 639.31 1025 641.356C1024.92 642.182 1025.05 642.995 1025.25 643.77C1025.4 644.324 1025.59 644.885 1025.77 645.422C1025.84 645.627 1025.9 645.829 1025.97 646.025C1026.45 647.504 1026.71 648.746 1026.13 649.872C1025.48 651.137 1024.2 651.565 1022.48 651.76C1021.94 651.822 1021.39 651.858 1020.83 651.895C1020.5 651.917 1020.15 651.94 1019.8 651.968C1018.89 652.042 1017.95 652.157 1017.09 652.422C1015.57 652.89 1014.35 653.819 1013.3 654.931C1012.32 655.972 1011.45 657.199 1010.62 658.385C1010.56 658.46 1010.51 658.534 1010.46 658.609C1008.65 661.173 1006.96 663.444 1004.29 663.988C1001.81 664.496 999.484 663.286 996.956 661.863C996.843 661.799 996.729 661.734 996.614 661.67C994.256 660.337 991.711 658.9 988.92 659.123C988.489 659.158 988.058 659.231 987.647 659.307C987.563 659.322 987.48 659.337 987.398 659.353C987.071 659.414 986.757 659.472 986.444 659.516C985.663 659.624 984.985 659.622 984.376 659.347C983.635 659.012 983.157 658.357 982.815 657.488C982.495 656.68 982.318 655.751 982.142 654.832C982.128 654.757 982.113 654.681 982.099 654.606C981.596 651.353 980.085 648.34 977.78 645.99L977.78 645.99L977.774 645.985C976.579 644.806 975.086 643.973 973.455 643.576C972.018 643.227 970.522 643.227 969.09 643.573C968.525 639.841 965.481 636.81 962.035 635.445C958.407 634.008 954.385 634.116 950.621 634.633L950.621 634.633C943.141 635.665 935.961 638.257 929.546 642.24L929.533 642.248L929.52 642.257C927.905 643.406 926.149 644.342 924.295 645.043C921.804 645.804 919.107 645.487 916.381 645.139L902.736 643.396C907.14 631.54 910.453 619.307 912.633 606.848L912.633 606.848C913.034 604.553 913.45 602.191 914.205 600.037C914.958 597.889 916.037 595.987 917.739 594.596C919.026 593.545 920.554 592.888 922.206 592.394C923.364 592.049 924.554 591.791 925.756 591.531C926.283 591.417 926.812 591.302 927.342 591.18L927.343 591.179C937.193 588.875 946.125 583.667 952.981 576.228L952.982 576.227C953.804 575.331 954.596 574.411 955.386 573.494C956.657 572.018 957.922 570.549 959.292 569.202C961.491 567.041 963.869 565.293 966.754 564.535C967.842 564.249 968.965 564.118 970.128 563.983C970.334 563.959 970.542 563.934 970.752 563.909C972.119 563.744 973.526 563.535 974.864 563.006C976.789 562.245 978.419 560.876 979.963 559.58C980.172 559.404 980.38 559.229 980.587 559.058C982.347 557.598 984.044 556.341 986.109 555.995C987.533 555.88 988.964 555.86 990.392 555.936Z" fill="white" stroke="rgba(0,0,0,0.2)"/>
<path id="Vector_17" d="M944.054 539.762L944.054 539.762L944.064 539.764C950.305 540.83 956.486 542.214 962.584 543.911C957.475 544.09 952.381 543.433 947.264 542.514C945.051 542.116 942.826 541.668 940.594 541.218C936.736 540.44 932.857 539.658 928.984 539.128C918.41 537.68 907.688 538.08 897.079 538.493C896.705 538.049 896.639 537.412 896.865 536.736C897.116 535.985 897.699 535.304 898.399 535.012C899.916 534.377 901.684 534.802 903.49 535.309C906.934 536.274 909.977 536.291 912.99 536.145C913.63 536.113 914.266 536.075 914.904 536.037C917.283 535.894 919.683 535.749 922.348 535.969C925.603 536.296 928.838 536.796 932.04 537.467L932.04 537.467L932.048 537.469L944.054 539.762Z" fill="white" stroke="rgba(0,0,0,0.2)"/>
<path id="Vector_18" d="M906.599 508.157L906.582 508.135L906.563 508.115C905.732 507.278 905.098 506.268 904.705 505.157C904.546 504.665 904.55 504.135 904.716 503.646C904.881 503.162 905.195 502.745 905.613 502.453C905.999 502.25 906.449 502.202 906.978 502.239C907.33 502.263 907.663 502.318 908.017 502.376C908.235 502.412 908.462 502.449 908.706 502.481C909.34 502.565 910.075 502.532 910.716 502.309C911.36 502.084 911.968 501.64 912.188 500.874L911.794 500.761L912.188 500.874C912.322 500.413 912.27 499.919 912.231 499.545C912.225 499.495 912.22 499.446 912.216 499.401C912.174 498.96 912.183 498.693 912.309 498.484C912.432 498.28 912.653 498.152 913.021 498.094C913.396 498.035 913.834 498.062 914.284 498.1C918.479 498.45 921.16 497.212 923.341 495.226C924.417 494.247 925.365 493.092 926.308 491.888C926.509 491.632 926.709 491.374 926.911 491.114C927.663 490.144 928.43 489.155 929.289 488.179L928.914 487.849L929.289 488.179C930.316 487.011 931.471 485.992 932.681 485.511C933.852 485.045 935.091 485.075 936.397 486.04C937.913 487.161 938.225 488.686 938.101 490.443C938.039 491.329 937.867 492.248 937.691 493.182L937.687 493.203C937.514 494.118 937.338 495.053 937.285 495.93C937.239 496.686 937.27 497.452 937.315 498.2C937.327 498.407 937.34 498.612 937.354 498.816C937.389 499.355 937.423 499.882 937.436 500.405C937.471 501.843 937.335 503.134 936.651 504.242C936.31 504.793 935.838 505.283 935.293 505.759C934.943 506.065 934.584 506.348 934.218 506.638C934.001 506.809 933.781 506.982 933.558 507.165C932.409 508.103 931.256 509.206 931.079 510.856C930.979 511.783 931.23 512.641 931.585 513.42C931.845 513.991 932.18 514.555 932.492 515.083C932.6 515.264 932.704 515.441 932.803 515.612C933.187 516.281 933.505 517.034 933.62 517.753C933.734 518.46 933.645 519.091 933.281 519.596C932.808 520.127 932.21 520.531 931.542 520.772L931.522 520.779L931.503 520.788L927.311 522.703C926.719 522.974 926.107 523.221 925.523 523.324C924.957 523.423 924.467 523.378 924.058 523.131C923.495 522.652 923.05 522.049 922.759 521.369L922.747 521.34L922.731 521.312C921.506 519.229 919.59 517.865 917.579 516.697C916.918 516.313 916.253 515.953 915.595 515.596C914.215 514.849 912.864 514.117 911.64 513.214C909.775 511.724 908.084 510.027 906.599 508.157Z" fill="white" stroke="rgba(0,0,0,0.2)"/>
<path id="Vector_19" d="M939.803 441.567C940.234 440.088 941.098 438.782 942.304 437.966C942.322 438.411 942.321 438.9 942.314 439.422C942.311 439.657 942.306 439.898 942.301 440.145C942.289 440.77 942.276 441.426 942.284 442.073C942.306 443.856 942.479 445.749 943.357 447.082C943.508 447.311 943.776 447.544 944.066 447.758C944.371 447.984 944.751 448.226 945.176 448.471C946.026 448.959 947.082 449.47 948.125 449.874C949.159 450.275 950.218 450.586 951.063 450.651C951.327 450.671 951.592 450.669 951.839 450.628C951.696 451.939 951.66 453.341 951.886 454.624C952.184 456.315 952.954 457.877 954.608 458.684C954.962 458.857 955.345 458.989 955.704 459.108C955.771 459.13 955.837 459.151 955.902 459.172C956.197 459.268 956.473 459.358 956.734 459.463C957.359 459.714 957.751 459.995 957.916 460.439C958.032 461.031 957.969 461.645 957.737 462.202L957.725 462.23L957.717 462.259C956.962 464.936 956.868 467.756 957.444 470.477C957.609 471.464 957.995 472.402 958.574 473.219L958.581 473.229L958.588 473.239C959.167 473.977 959.943 474.468 960.671 474.895C960.776 474.957 960.88 475.018 960.983 475.078C961.612 475.443 962.19 475.778 962.677 476.221C963.514 477.034 964.002 478.14 964.036 479.306C964.071 480.467 963.653 481.596 962.872 482.455C962.452 482.832 961.959 483.119 961.423 483.297C960.881 483.479 960.306 483.545 959.736 483.493C959.167 483.44 958.614 483.27 958.113 482.993C957.617 482.719 957.183 482.345 956.838 481.895C955.92 480.511 956.016 478.832 956.266 476.902C956.292 476.701 956.32 476.496 956.348 476.289C956.581 474.581 956.837 472.71 956.284 470.998C955.71 469.22 954.401 467.942 953.084 466.789C952.871 466.603 952.658 466.42 952.447 466.239C951.322 465.271 950.251 464.351 949.499 463.202C948.636 461.884 948.241 460.333 947.846 458.677C947.83 458.607 947.813 458.536 947.796 458.466C947.424 456.901 947.031 455.248 946.178 453.79C945.393 452.447 944.27 451.361 943.206 450.331C943.157 450.283 943.107 450.236 943.058 450.188C941.932 449.097 940.887 448.055 940.215 446.767C939.408 445.222 939.298 443.303 939.803 441.567Z" fill="white" stroke="rgba(0,0,0,0.2)"/>
<path id="Vector_20" d="M858.172 487.345L858.172 487.345C858.914 486.971 859.732 487.084 860.589 487.53C861.45 487.978 862.28 488.731 862.962 489.493C863.855 490.494 864.779 491.675 865.753 492.933C865.842 493.049 865.932 493.165 866.022 493.282C866.91 494.431 867.838 495.631 868.806 496.783C870.931 499.312 873.305 501.682 876.011 502.843C876.73 503.151 877.327 503.298 877.859 503.342C878.392 503.386 878.837 503.326 879.241 503.248C879.361 503.225 879.476 503.201 879.589 503.177C880.229 503.043 880.788 502.926 881.654 503.111C882.864 503.369 883.8 504.189 884.72 505.097C884.815 505.191 884.911 505.287 885.007 505.383C885.36 505.735 885.718 506.093 886.074 506.394C886.109 506.424 886.144 506.453 886.18 506.482C885.857 506.639 885.565 506.858 885.316 507.113C884.683 507.76 884.266 508.692 884.273 509.626L884.273 509.651L884.276 509.676C884.46 511.364 885.211 512.94 886.407 514.145C887.635 515.621 888.957 517.007 890.287 518.367C890.588 518.674 890.889 518.981 891.19 519.286C892.227 520.34 893.257 521.388 894.251 522.47C894.787 523.052 895.302 523.668 895.662 524.316C896.02 524.961 896.208 525.609 896.132 526.267C896.042 527.051 895.553 527.724 894.833 528.192C894.117 528.658 893.209 528.892 892.363 528.818C890.548 528.5 888.886 527.598 887.629 526.249L887.617 526.236L887.604 526.224C884.337 523.183 881.898 519.426 879.494 515.548C879.276 515.196 879.058 514.843 878.84 514.489C876.664 510.964 874.457 507.388 871.646 504.299C869.134 501.539 866.18 499.216 863.264 496.923C862.181 496.071 861.103 495.224 860.055 494.36L860.041 494.348L860.025 494.337C858.784 493.463 857.791 492.282 857.144 490.91C856.906 490.26 856.871 489.504 857.05 488.837C857.23 488.167 857.612 487.627 858.172 487.345Z" fill="white" stroke="rgba(0,0,0,0.2)"/>
<path id="Vector_21" d="M984.924 336.993L984.95 337.001L984.976 337.005C985.707 337.141 986.389 337.069 986.996 336.95C987.295 336.891 987.582 336.819 987.845 336.753L987.854 336.75C988.125 336.682 988.367 336.622 988.596 336.579C989.06 336.493 989.379 336.499 989.632 336.615C989.871 336.726 990.147 336.983 990.407 337.628C990.688 338.325 990.509 339.269 990.003 340.216C989.505 341.152 988.756 341.96 988.116 342.347C985.671 343.823 982.551 343.528 979.487 343.137L978.506 343.011L978.987 343.876C982.956 351.012 985.522 358.843 986.547 366.945C986.755 368.594 986.803 370.209 985.931 371.312C985.221 372.061 984.309 372.587 983.305 372.826L983.287 372.83L983.27 372.835C980.507 373.71 977.613 374.095 974.718 373.974C973.856 373.938 972.805 373.934 971.89 374.167C970.97 374.401 970.084 374.906 969.746 375.955C969.563 376.523 969.61 377.15 969.647 377.65C969.653 377.73 969.659 377.806 969.664 377.879C969.7 378.47 969.672 378.858 969.449 379.151L969.847 379.454L969.449 379.151C969.31 379.335 969.099 379.468 968.793 379.598C968.66 379.654 968.522 379.705 968.371 379.761C968.348 379.769 968.325 379.778 968.302 379.786C968.129 379.85 967.939 379.921 967.756 380.007C965.773 380.93 965.23 382.926 964.915 384.881C964.844 385.318 964.787 385.743 964.73 386.163C964.652 386.734 964.576 387.297 964.469 387.876C964.29 388.851 964.044 389.749 963.622 390.514L964.06 390.755L963.622 390.514C963.384 390.944 963.005 391.345 962.595 391.575C962.202 391.796 961.836 391.836 961.527 391.693C961.262 391.498 961.049 391.242 960.907 390.945C960.759 390.638 960.693 390.298 960.713 389.957L960.715 389.928L960.713 389.899C960.674 389.182 960.716 388.436 960.781 387.665C960.799 387.444 960.82 387.218 960.84 386.991C960.891 386.44 960.942 385.877 960.968 385.329C961.043 383.774 960.932 382.175 959.989 380.79L959.579 381.069L959.989 380.79C959.781 380.484 959.536 380.194 959.306 379.924C959.28 379.894 959.255 379.865 959.23 379.836C959.022 379.593 958.827 379.366 958.656 379.134C958.275 378.621 958.079 378.181 958.136 377.713C958.248 377.233 958.485 376.791 958.822 376.432L958.836 376.417L958.849 376.401C962.518 371.801 967.044 367.955 972.175 365.075C973.524 364.451 974.74 363.575 975.759 362.492L975.782 362.467L975.802 362.439C976.538 361.403 977.06 360.23 977.335 358.989C978.398 355.161 978.988 350.668 976.861 347.078C976.364 346.24 975.712 345.45 975.094 344.7C974.84 344.391 974.591 344.089 974.361 343.794C973.545 342.747 972.915 341.727 972.762 340.542C972.539 338.804 973.527 337.268 975.109 336.275C976.686 335.285 978.76 334.903 980.521 335.422C981.96 336.024 983.429 336.549 984.924 336.993Z" fill="white" stroke="rgba(0,0,0,0.2)"/>
<path id="Vector_22" d="M596.836 382.022C606.168 383.457 616.27 384.837 625.722 384.32C626.137 384.298 626.551 384.272 626.964 384.246C629.949 384.061 632.86 383.88 635.518 384.881C638.177 385.883 640.159 387.888 641.683 390.384C643.092 392.692 644.093 395.395 644.866 398.047L640.801 397.912L640.225 397.893L640.287 398.466C640.394 399.452 640.817 400.377 641.492 401.103C651.022 413.705 659.332 427.184 666.311 441.358C666.948 442.652 667.775 444.015 668.609 445.389L668.704 445.545C669.575 446.98 670.448 448.43 671.153 449.872C672.572 452.778 673.22 455.486 671.925 457.83C671.32 458.926 671.445 460.165 671.949 461.21C672.453 462.253 673.356 463.159 674.422 463.641C676.48 464.572 678.828 464.297 680.883 464.038L697.622 461.928L697.649 461.924L697.676 461.918C698.787 461.65 699.956 461.769 700.99 462.254C701.752 462.752 702.102 463.59 702.162 464.634C702.222 465.693 701.975 466.89 701.624 467.942C698.224 478.117 691.628 486.904 685.011 495.719C684.305 496.659 683.6 497.598 682.898 498.54C675.636 508.286 668.768 518.241 666.844 530.195L666.842 530.204L666.841 530.212C666.318 534.378 666.008 538.569 665.914 542.767C665.531 549.619 664.53 556.423 662.921 563.095L662.919 563.104L662.917 563.113C662.358 565.865 661.381 568.514 660.019 570.97C658.558 573.376 656.471 575.364 654.34 577.393C653.96 577.756 653.578 578.119 653.198 578.487C650.717 580.888 648.335 583.445 647.259 586.818C646.661 588.692 646.506 590.701 646.509 592.711C646.51 593.917 646.571 595.159 646.63 596.377C646.668 597.166 646.706 597.945 646.727 598.697C646.836 602.611 646.505 606.029 643.853 608.368C642.415 609.636 640.514 610.3 638.527 610.993C638.222 611.099 637.916 611.206 637.608 611.316C635.355 612.122 633.071 613.094 631.78 615.272C630.685 617.121 630.693 619.207 630.86 621.225C630.897 621.666 630.94 622.102 630.983 622.534C631.143 624.129 631.296 625.664 631.062 627.142C630.336 631.723 626.002 634.883 621.609 637.063C612.307 641.666 602.048 644.001 591.671 643.878L591.654 643.878L591.636 643.879C589.995 643.975 588.356 643.649 586.876 642.931C585.272 641.987 584.426 640.38 583.881 638.433C583.608 637.458 583.416 636.417 583.239 635.354C583.198 635.107 583.157 634.857 583.117 634.608C582.984 633.794 582.851 632.976 582.69 632.195C581.758 627.695 579.426 623.704 577.128 619.798L577.058 619.679C574.769 615.789 572.526 611.978 571.57 607.722C570.75 604.077 570.936 600.238 571.123 596.365C571.17 595.408 571.216 594.449 571.248 593.491C571.401 588.796 571.187 584.136 568.633 580.094C571.819 573.984 575.114 567.422 574.999 560.379C574.904 554.591 572.519 549.183 570.191 543.905C570.079 543.65 569.966 543.395 569.854 543.141C567.407 537.579 565.147 532.143 565.533 526.349C565.635 524.826 565.922 523.32 566.226 521.783C566.245 521.686 566.265 521.59 566.284 521.493C566.569 520.058 566.86 518.594 567.002 517.107L567.002 517.106C567.469 512.035 566.197 506.957 563.397 502.705L563.396 502.703C561.558 499.932 558.545 497.254 555.001 497.535C554.442 497.579 553.885 497.699 553.368 497.811C553.248 497.837 553.131 497.862 553.017 497.886C552.385 498.017 551.807 498.109 551.237 498.063C549.92 497.955 548.881 497.182 547.895 496.074C547.403 495.522 546.939 494.903 546.466 494.265L546.375 494.143C545.936 493.55 545.485 492.942 545.012 492.39C542.842 489.858 539.93 488.386 536.784 487.481C533.642 486.578 530.231 486.229 527.036 485.968L490.725 482.996L490.701 482.994L490.676 482.994C489.781 483.008 488.902 482.758 488.148 482.275C487.608 481.83 487.345 481.176 487.233 480.363C487.134 479.64 487.162 478.857 487.19 478.066C487.194 477.945 487.198 477.823 487.202 477.701L487.202 477.699C487.331 473.164 485.888 468.724 483.119 465.13L483.118 465.128C482.066 463.772 480.828 462.548 479.62 461.354C479.282 461.019 478.946 460.687 478.617 460.355C477.098 458.821 475.711 457.271 474.784 455.417C473.295 452.441 473.144 448.976 473.026 445.505L472.113 418.661C472.037 416.436 471.996 414.257 472.894 412.402C473.88 410.707 475.254 409.269 476.903 408.206L476.918 408.197L476.932 408.186C477.695 407.616 478.471 407.051 479.251 406.483C482.996 403.757 486.828 400.968 489.701 397.264C491.358 395.127 492.637 392.765 493.799 390.363C494.267 389.397 494.712 388.433 495.155 387.474C495.824 386.025 496.488 384.586 497.218 383.167C499.627 378.48 502.956 374.006 507.753 372.261C509.922 371.594 512.162 371.186 514.427 371.048L514.439 371.048L514.451 371.046C526.643 369.709 538.597 366.719 549.983 362.159L549.996 362.154L550.009 362.148C551.652 361.381 553.398 360.859 555.192 360.598C557.102 360.484 558.997 361.005 560.581 362.081C562.168 363.159 563.352 364.733 563.949 366.557C564.374 367.984 564.42 369.5 564.468 371.087C564.474 371.271 564.48 371.456 564.486 371.641C564.545 373.401 564.661 375.234 565.44 376.919C567.357 381.063 571.812 382.119 576.218 382.957C576.569 383.023 576.92 383.088 577.27 383.154C579.163 383.506 581.04 383.855 582.783 384.404C584.84 385.053 586.657 385.967 588.028 387.446C588.276 387.714 588.514 388.005 588.765 388.31L588.767 388.313C589.015 388.616 589.275 388.932 589.551 389.229C590.102 389.821 590.755 390.377 591.614 390.637C592.741 390.979 593.871 390.674 594.781 390.058C595.689 389.443 596.418 388.495 596.773 387.453C597.379 385.673 597.146 383.767 596.836 382.022Z" fill="white" stroke="rgba(0,0,0,0.2)"/>
<g id="Vector_23">
<mask id="path-28-inside-6" fill="white">
<path d="M625.702 251.745C628.221 254.42 631.044 257.256 634.689 257.723C641.127 258.546 645.756 251.889 648.703 246.106C648.812 247.58 649.492 248.954 650.598 249.934C651.705 250.915 653.15 251.426 654.626 251.357C656.215 251.09 657.732 250.497 659.081 249.615C671.837 242.645 686.124 238.951 700.66 238.867C700.521 237.766 700.794 236.652 701.427 235.74C702.06 234.829 703.009 234.184 704.089 233.931C707.045 233.345 709.707 235.9 711.133 238.554C712.558 241.208 713.447 244.285 715.712 246.272C717.977 248.258 722.363 248.172 723.257 245.295C724.116 242.533 721.239 240.177 718.848 238.549C716.458 236.92 713.938 233.906 715.548 231.503C727.761 228.8 740.05 226.086 752.548 225.549C754.675 225.623 756.795 225.258 758.776 224.476C760.682 223.541 762.196 221.418 761.684 219.357C758.957 219.998 756.1 219.813 753.479 218.824C750.858 217.835 748.59 216.088 746.966 213.806C764.307 212.375 782.751 211.155 798.119 219.315C799.963 223.274 790.564 226.568 793.079 230.138C793.881 231.277 795.488 231.411 796.881 231.437C807.56 231.635 818.301 231.829 828.86 230.217C832.719 229.628 836.616 228.796 840.49 229.274C846.943 230.07 852.462 234.375 858.81 235.779C861.394 236.35 864.291 236.369 866.469 234.867C868.647 233.364 869.584 229.942 867.799 227.988C873.776 222.13 883.696 223.582 891.581 226.387C899.467 229.191 906.937 233.714 915.283 234.339C921.267 234.787 927.335 233.178 933.249 234.201C936.965 234.844 940.424 236.497 944.056 237.513C950.925 239.434 958.192 239.028 965.324 239.121C983.522 239.366 1001.52 242.942 1018.43 249.673C1020.63 250.389 1022.64 251.58 1024.33 253.161C1025.91 254.846 1026.71 257.464 1025.65 259.513L1008.18 256.96C1009.83 260.2 1014.08 260.753 1017.54 261.871C1021 262.989 1024.59 266.808 1022.51 269.79C1018.76 268.597 1015.37 272.344 1013.47 275.791C1011.58 279.239 1009.27 283.367 1005.35 283.577C1001.83 283.765 997.575 280.771 995.283 283.444C998.45 287.44 1001.16 291.775 1003.37 296.371C1005.63 301.089 1007.25 307.034 1004.19 311.279C1003.7 312.037 1002.97 312.603 1002.12 312.881C999.62 313.514 997.995 310.456 996.202 308.602C993.943 306.266 990.527 305.605 987.467 304.509C984.408 303.414 981.185 301.259 980.946 298.018C980.797 296.002 981.862 294.127 982.646 292.264C983.964 289.123 984.54 285.72 984.33 282.32C984.159 279.585 983.392 276.74 981.427 274.829C979.463 272.918 976.071 272.311 973.962 274.062C972.978 274.878 972.19 276.185 970.912 276.234C968.654 276.32 966.921 272.384 965.104 273.727C965.317 275.159 965.02 276.62 964.265 277.855C958.845 282.57 950.517 280.575 943.529 282.241C940.206 283.192 937.025 284.581 934.069 286.372C932.963 286.845 932.022 287.635 931.364 288.642C930.492 290.337 931.454 292.508 932.991 293.635C934.622 294.635 936.454 295.261 938.356 295.466C946.875 297.08 955.519 299.578 962.245 305.05C968.972 310.522 973.382 319.568 971.254 327.973L954.453 311.92C955.091 318.66 955.453 325.42 955.54 332.197C955.648 333.521 955.466 334.852 955.007 336.098C953.809 338.743 950.563 339.633 947.718 340.217C946.927 340.367 946.177 340.683 945.516 341.144C944.856 341.605 944.3 342.201 943.887 342.892C943.473 343.583 943.21 344.353 943.115 345.153C943.02 345.953 943.095 346.763 943.336 347.532C944.346 350.826 946.866 353.395 949.174 355.954C951.481 358.513 953.752 361.422 954.054 364.854C954.356 368.287 951.766 372.156 948.329 371.917C945.723 371.736 943.789 369.404 942.678 367.04C941.566 364.676 940.905 362.042 939.235 360.034C934.18 353.954 922.826 356.559 918.297 350.078C917.143 351.387 916.343 352.97 915.972 354.675C915.601 356.381 915.673 358.153 916.18 359.824C918.286 358.505 921.17 359.73 922.753 361.646C924.336 363.563 925.083 366.02 926.326 368.172C928.003 371.076 930.673 373.651 930.907 376.997C930.845 378.262 930.866 379.53 930.971 380.792C931.386 382.819 933.1 384.275 934.288 385.969C937.052 389.912 936.916 395.328 935.134 399.802C933.352 404.275 930.151 408.013 926.981 411.637C921.443 417.967 915.792 424.26 909.227 429.517C907.354 431.017 905.354 432.492 904.188 434.589C903.021 436.686 902.961 439.63 904.754 441.225C903.471 441.289 901.17 441.92 899.888 441.984C899.437 436.838 899.338 431.667 899.594 426.507C894.532 424.076 889.081 430.586 889.734 436.164C890.387 441.742 894.422 446.218 897.294 451.044C899.394 454.573 900.955 458.688 900.254 462.734C899.553 466.781 895.941 470.514 891.849 470.157C885.342 469.589 882.62 460.247 876.175 459.178C875.607 459.044 875.01 459.103 874.479 459.346C873.523 459.871 873.357 461.151 873.303 462.241C873.039 467.59 872.811 473.152 874.899 478.084C877.954 485.299 885.846 491.358 884.19 499.016C875.272 494.871 870.636 484.87 868.53 475.264C866.425 465.658 866.074 455.573 862.301 446.492C859.435 450.164 853.412 447.128 850.794 443.275C848.312 439.622 846.784 435.397 844.376 431.695C841.967 427.993 838.278 424.678 833.867 424.474C829.241 424.261 825.23 427.435 821.702 430.434C818.801 432.9 815.822 435.463 814.127 438.873C811.659 443.833 812.305 449.682 812.186 455.221C812.057 461.21 810.788 467.528 806.706 471.912C802.625 476.297 795.091 477.824 790.589 473.872C788.239 471.81 787.101 468.728 786.087 465.769C781.201 451.509 777.132 436.982 773.899 422.258C773.143 425.619 770.192 429.95 767.373 427.971C766.74 427.438 766.228 426.778 765.869 426.033C760.611 417.121 750.873 411.776 741.034 408.57C731.195 405.365 720.844 403.87 711.114 400.347C705.661 398.373 700.454 395.779 695.593 392.616C694.354 394.437 693.63 396.558 693.499 398.757C693.367 400.955 693.833 403.148 694.847 405.103C697.005 408.924 701.889 411.135 706.07 409.8C708.23 409.109 710.055 407.61 712.198 406.869C714.342 406.128 717.219 406.492 718.157 408.557C719.054 410.534 717.698 412.925 718.37 414.99C719.395 418.133 724.136 418.375 725.794 421.236C727.028 423.365 726.013 426.191 724.252 427.909C722.49 429.626 720.14 430.568 717.99 431.764C711.014 435.643 706.053 442.265 699.956 447.417C693.86 452.57 685.258 456.331 677.992 453.026C679.724 444.256 669.277 437.818 667.355 429.087C666.722 426.213 667.05 423.161 666.147 420.361C664.84 416.306 661.242 413.518 658.291 410.446C654.712 406.679 651.924 402.233 650.091 397.371C648.258 392.508 647.417 387.328 647.619 382.136C647.778 378.528 648.441 374.861 647.619 371.344C646.797 367.827 643.885 364.423 640.277 364.582C632.036 364.946 621.654 365.559 617.33 358.534C615.787 356.027 615.115 352.354 617.347 350.433C618.92 349.078 621.244 349.206 623.311 349.409L641.879 351.236C646.222 351.663 650.916 352.016 654.643 349.745C658.37 347.475 659.985 341.448 656.534 338.777C654.012 336.825 649.495 336.931 648.762 333.828C648.152 331.244 651.012 328.311 649.467 326.152C648.36 324.603 645.869 325.033 644.36 326.194C642.851 327.355 641.756 329.052 640.067 329.931C637.104 331.473 633.563 330.006 630.376 329.008C627.188 328.011 622.914 327.926 621.368 330.887C619.639 334.198 622.902 338.537 621.186 341.855C618.917 346.242 611.233 343.744 608.047 347.518C604.39 351.848 610.535 358.304 609.302 363.835C607.728 364.615 605.978 364.973 604.224 364.875C602.47 364.776 600.772 364.224 599.295 363.273C597.842 362.285 596.684 360.922 595.944 359.328C595.205 357.734 594.911 355.97 595.094 354.223C595.399 351.734 596.696 349.194 595.827 346.843C595.124 344.942 593.215 343.81 591.441 342.829L573.397 332.858C571.722 335.966 573.84 339.819 576.489 342.153C579.137 344.487 582.455 346.245 584.195 349.317C585.296 351.446 585.543 353.914 584.885 356.218C584.227 358.522 582.715 360.488 580.657 361.715C580.399 361.893 580.105 362.013 579.797 362.067C579.488 362.121 579.171 362.107 578.868 362.027C578.58 361.858 578.329 361.633 578.13 361.365C577.931 361.097 577.787 360.792 577.708 360.467C574.524 352.32 569.744 344.287 562.102 340.031C554.46 335.775 543.479 336.65 538.468 343.819C537.277 345.522 536.479 347.463 535.442 349.264C529.933 358.829 518.122 363.359 507.088 363.063C506.008 363.122 504.935 362.87 503.995 362.336C502.211 361.104 502.292 358.491 502.565 356.341L503.723 347.216C503.956 345.384 504.293 343.359 505.743 342.215C507.787 340.603 510.736 341.62 513.339 341.583C515.311 341.491 517.207 340.794 518.771 339.588C520.334 338.381 521.488 336.724 522.077 334.839C522.603 332.936 522.6 330.926 522.067 329.025C521.535 327.123 520.494 325.403 519.057 324.05C517.863 322.929 516.262 321.522 516.892 320.011C517.144 319.593 517.484 319.235 517.888 318.963C518.293 318.69 518.752 318.51 519.234 318.434C523.91 317.076 528.851 316.72 533.449 315.118C538.047 313.516 542.506 310.238 543.595 305.492C543.929 304.037 544.081 302.276 545.387 301.554C546.043 301.278 546.747 301.134 547.458 301.131C549.951 300.777 552.221 299.502 553.821 297.557C555.421 295.613 556.235 293.14 556.102 290.626C558.306 289.086 561.393 290.218 563.525 291.856C565.657 293.494 567.539 295.658 570.133 296.364C574.967 297.679 579.639 293.399 584.649 293.379C586.756 293.371 588.937 294.116 590.919 293.402C592.928 292.678 594.128 290.677 595.67 289.2C597.212 287.722 599.918 286.821 601.342 288.413L600.13 279.431C602.572 280.047 605.118 280.135 607.596 279.687C610.075 279.239 612.429 278.265 614.5 276.832L598.828 271.537C598.283 271.401 597.779 271.132 597.363 270.754C596.223 269.527 597.355 267.615 598.282 266.22C600.498 262.884 600.87 257.388 597.225 255.727C594.737 254.593 591.882 255.954 589.494 257.285L578.055 263.663C577.692 265.838 580.351 267.07 581.998 268.534C582.995 269.42 583.701 270.587 584.022 271.882C584.344 273.176 584.266 274.538 583.8 275.787C583.333 277.037 582.5 278.116 581.409 278.883C580.318 279.65 579.021 280.07 577.687 280.086C578.44 281.065 578.964 282.202 579.218 283.41C579.473 284.619 579.452 285.87 579.158 287.07L571.462 287.624C570.598 287.797 569.701 287.622 568.966 287.136C568.143 286.405 568.254 285.124 568.063 284.04C567.603 281.423 565.041 279.589 562.425 279.119C559.81 278.648 557.135 279.251 554.545 279.846C553.446 280.242 552.238 280.214 551.158 279.768C550.539 279.366 550.068 278.772 549.818 278.077C548.683 275.324 549.744 272.088 551.567 269.734C553.391 267.38 555.887 265.659 558.129 263.7C563.49 258.996 567.428 252.887 569.5 246.062C573.737 244.287 578.123 241.875 582.36 240.1C588.892 236.793 596.217 235.373 603.511 236.002L617.859 236.276C622.107 236.357 626.47 236.461 630.398 238.08C634.326 239.7 637.777 243.203 638.049 247.443C638.13 247.923 638.089 248.416 637.928 248.875C637.767 249.335 637.492 249.746 637.129 250.07C636.574 250.373 635.946 250.515 635.315 250.479C631.353 250.618 629.664 251.605 625.702 251.745Z"/>
</mask>
<path d="M625.702 251.745C628.221 254.42 631.044 257.256 634.689 257.723C641.127 258.546 645.756 251.889 648.703 246.106C648.812 247.58 649.492 248.954 650.598 249.934C651.705 250.915 653.15 251.426 654.626 251.357C656.215 251.09 657.732 250.497 659.081 249.615C671.837 242.645 686.124 238.951 700.66 238.867C700.521 237.766 700.794 236.652 701.427 235.74C702.06 234.829 703.009 234.184 704.089 233.931C707.045 233.345 709.707 235.9 711.133 238.554C712.558 241.208 713.447 244.285 715.712 246.272C717.977 248.258 722.363 248.172 723.257 245.295C724.116 242.533 721.239 240.177 718.848 238.549C716.458 236.92 713.938 233.906 715.548 231.503C727.761 228.8 740.05 226.086 752.548 225.549C754.675 225.623 756.795 225.258 758.776 224.476C760.682 223.541 762.196 221.418 761.684 219.357C758.957 219.998 756.1 219.813 753.479 218.824C750.858 217.835 748.59 216.088 746.966 213.806C764.307 212.375 782.751 211.155 798.119 219.315C799.963 223.274 790.564 226.568 793.079 230.138C793.881 231.277 795.488 231.411 796.881 231.437C807.56 231.635 818.301 231.829 828.86 230.217C832.719 229.628 836.616 228.796 840.49 229.274C846.943 230.07 852.462 234.375 858.81 235.779C861.394 236.35 864.291 236.369 866.469 234.867C868.647 233.364 869.584 229.942 867.799 227.988C873.776 222.13 883.696 223.582 891.581 226.387C899.467 229.191 906.937 233.714 915.283 234.339C921.267 234.787 927.335 233.178 933.249 234.201C936.965 234.844 940.424 236.497 944.056 237.513C950.925 239.434 958.192 239.028 965.324 239.121C983.522 239.366 1001.52 242.942 1018.43 249.673C1020.63 250.389 1022.64 251.58 1024.33 253.161C1025.91 254.846 1026.71 257.464 1025.65 259.513L1008.18 256.96C1009.83 260.2 1014.08 260.753 1017.54 261.871C1021 262.989 1024.59 266.808 1022.51 269.79C1018.76 268.597 1015.37 272.344 1013.47 275.791C1011.58 279.239 1009.27 283.367 1005.35 283.577C1001.83 283.765 997.575 280.771 995.283 283.444C998.45 287.44 1001.16 291.775 1003.37 296.371C1005.63 301.089 1007.25 307.034 1004.19 311.279C1003.7 312.037 1002.97 312.603 1002.12 312.881C999.62 313.514 997.995 310.456 996.202 308.602C993.943 306.266 990.527 305.605 987.467 304.509C984.408 303.414 981.185 301.259 980.946 298.018C980.797 296.002 981.862 294.127 982.646 292.264C983.964 289.123 984.54 285.72 984.33 282.32C984.159 279.585 983.392 276.74 981.427 274.829C979.463 272.918 976.071 272.311 973.962 274.062C972.978 274.878 972.19 276.185 970.912 276.234C968.654 276.32 966.921 272.384 965.104 273.727C965.317 275.159 965.02 276.62 964.265 277.855C958.845 282.57 950.517 280.575 943.529 282.241C940.206 283.192 937.025 284.581 934.069 286.372C932.963 286.845 932.022 287.635 931.364 288.642C930.492 290.337 931.454 292.508 932.991 293.635C934.622 294.635 936.454 295.261 938.356 295.466C946.875 297.08 955.519 299.578 962.245 305.05C968.972 310.522 973.382 319.568 971.254 327.973L954.453 311.92C955.091 318.66 955.453 325.42 955.54 332.197C955.648 333.521 955.466 334.852 955.007 336.098C953.809 338.743 950.563 339.633 947.718 340.217C946.927 340.367 946.177 340.683 945.516 341.144C944.856 341.605 944.3 342.201 943.887 342.892C943.473 343.583 943.21 344.353 943.115 345.153C943.02 345.953 943.095 346.763 943.336 347.532C944.346 350.826 946.866 353.395 949.174 355.954C951.481 358.513 953.752 361.422 954.054 364.854C954.356 368.287 951.766 372.156 948.329 371.917C945.723 371.736 943.789 369.404 942.678 367.04C941.566 364.676 940.905 362.042 939.235 360.034C934.18 353.954 922.826 356.559 918.297 350.078C917.143 351.387 916.343 352.97 915.972 354.675C915.601 356.381 915.673 358.153 916.18 359.824C918.286 358.505 921.17 359.73 922.753 361.646C924.336 363.563 925.083 366.02 926.326 368.172C928.003 371.076 930.673 373.651 930.907 376.997C930.845 378.262 930.866 379.53 930.971 380.792C931.386 382.819 933.1 384.275 934.288 385.969C937.052 389.912 936.916 395.328 935.134 399.802C933.352 404.275 930.151 408.013 926.981 411.637C921.443 417.967 915.792 424.26 909.227 429.517C907.354 431.017 905.354 432.492 904.188 434.589C903.021 436.686 902.961 439.63 904.754 441.225C903.471 441.289 901.17 441.92 899.888 441.984C899.437 436.838 899.338 431.667 899.594 426.507C894.532 424.076 889.081 430.586 889.734 436.164C890.387 441.742 894.422 446.218 897.294 451.044C899.394 454.573 900.955 458.688 900.254 462.734C899.553 466.781 895.941 470.514 891.849 470.157C885.342 469.589 882.62 460.247 876.175 459.178C875.607 459.044 875.01 459.103 874.479 459.346C873.523 459.871 873.357 461.151 873.303 462.241C873.039 467.59 872.811 473.152 874.899 478.084C877.954 485.299 885.846 491.358 884.19 499.016C875.272 494.871 870.636 484.87 868.53 475.264C866.425 465.658 866.074 455.573 862.301 446.492C859.435 450.164 853.412 447.128 850.794 443.275C848.312 439.622 846.784 435.397 844.376 431.695C841.967 427.993 838.278 424.678 833.867 424.474C829.241 424.261 825.23 427.435 821.702 430.434C818.801 432.9 815.822 435.463 814.127 438.873C811.659 443.833 812.305 449.682 812.186 455.221C812.057 461.21 810.788 467.528 806.706 471.912C802.625 476.297 795.091 477.824 790.589 473.872C788.239 471.81 787.101 468.728 786.087 465.769C781.201 451.509 777.132 436.982 773.899 422.258C773.143 425.619 770.192 429.95 767.373 427.971C766.74 427.438 766.228 426.778 765.869 426.033C760.611 417.121 750.873 411.776 741.034 408.57C731.195 405.365 720.844 403.87 711.114 400.347C705.661 398.373 700.454 395.779 695.593 392.616C694.354 394.437 693.63 396.558 693.499 398.757C693.367 400.955 693.833 403.148 694.847 405.103C697.005 408.924 701.889 411.135 706.07 409.8C708.23 409.109 710.055 407.61 712.198 406.869C714.342 406.128 717.219 406.492 718.157 408.557C719.054 410.534 717.698 412.925 718.37 414.99C719.395 418.133 724.136 418.375 725.794 421.236C727.028 423.365 726.013 426.191 724.252 427.909C722.49 429.626 720.14 430.568 717.99 431.764C711.014 435.643 706.053 442.265 699.956 447.417C693.86 452.57 685.258 456.331 677.992 453.026C679.724 444.256 669.277 437.818 667.355 429.087C666.722 426.213 667.05 423.161 666.147 420.361C664.84 416.306 661.242 413.518 658.291 410.446C654.712 406.679 651.924 402.233 650.091 397.371C648.258 392.508 647.417 387.328 647.619 382.136C647.778 378.528 648.441 374.861 647.619 371.344C646.797 367.827 643.885 364.423 640.277 364.582C632.036 364.946 621.654 365.559 617.33 358.534C615.787 356.027 615.115 352.354 617.347 350.433C618.92 349.078 621.244 349.206 623.311 349.409L641.879 351.236C646.222 351.663 650.916 352.016 654.643 349.745C658.37 347.475 659.985 341.448 656.534 338.777C654.012 336.825 649.495 336.931 648.762 333.828C648.152 331.244 651.012 328.311 649.467 326.152C648.36 324.603 645.869 325.033 644.36 326.194C642.851 327.355 641.756 329.052 640.067 329.931C637.104 331.473 633.563 330.006 630.376 329.008C627.188 328.011 622.914 327.926 621.368 330.887C619.639 334.198 622.902 338.537 621.186 341.855C618.917 346.242 611.233 343.744 608.047 347.518C604.39 351.848 610.535 358.304 609.302 363.835C607.728 364.615 605.978 364.973 604.224 364.875C602.47 364.776 600.772 364.224 599.295 363.273C597.842 362.285 596.684 360.922 595.944 359.328C595.205 357.734 594.911 355.97 595.094 354.223C595.399 351.734 596.696 349.194 595.827 346.843C595.124 344.942 593.215 343.81 591.441 342.829L573.397 332.858C571.722 335.966 573.84 339.819 576.489 342.153C579.137 344.487 582.455 346.245 584.195 349.317C585.296 351.446 585.543 353.914 584.885 356.218C584.227 358.522 582.715 360.488 580.657 361.715C580.399 361.893 580.105 362.013 579.797 362.067C579.488 362.121 579.171 362.107 578.868 362.027C578.58 361.858 578.329 361.633 578.13 361.365C577.931 361.097 577.787 360.792 577.708 360.467C574.524 352.32 569.744 344.287 562.102 340.031C554.46 335.775 543.479 336.65 538.468 343.819C537.277 345.522 536.479 347.463 535.442 349.264C529.933 358.829 518.122 363.359 507.088 363.063C506.008 363.122 504.935 362.87 503.995 362.336C502.211 361.104 502.292 358.491 502.565 356.341L503.723 347.216C503.956 345.384 504.293 343.359 505.743 342.215C507.787 340.603 510.736 341.62 513.339 341.583C515.311 341.491 517.207 340.794 518.771 339.588C520.334 338.381 521.488 336.724 522.077 334.839C522.603 332.936 522.6 330.926 522.067 329.025C521.535 327.123 520.494 325.403 519.057 324.05C517.863 322.929 516.262 321.522 516.892 320.011C517.144 319.593 517.484 319.235 517.888 318.963C518.293 318.69 518.752 318.51 519.234 318.434C523.91 317.076 528.851 316.72 533.449 315.118C538.047 313.516 542.506 310.238 543.595 305.492C543.929 304.037 544.081 302.276 545.387 301.554C546.043 301.278 546.747 301.134 547.458 301.131C549.951 300.777 552.221 299.502 553.821 297.557C555.421 295.613 556.235 293.14 556.102 290.626C558.306 289.086 561.393 290.218 563.525 291.856C565.657 293.494 567.539 295.658 570.133 296.364C574.967 297.679 579.639 293.399 584.649 293.379C586.756 293.371 588.937 294.116 590.919 293.402C592.928 292.678 594.128 290.677 595.67 289.2C597.212 287.722 599.918 286.821 601.342 288.413L600.13 279.431C602.572 280.047 605.118 280.135 607.596 279.687C610.075 279.239 612.429 278.265 614.5 276.832L598.828 271.537C598.283 271.401 597.779 271.132 597.363 270.754C596.223 269.527 597.355 267.615 598.282 266.22C600.498 262.884 600.87 257.388 597.225 255.727C594.737 254.593 591.882 255.954 589.494 257.285L578.055 263.663C577.692 265.838 580.351 267.07 581.998 268.534C582.995 269.42 583.701 270.587 584.022 271.882C584.344 273.176 584.266 274.538 583.8 275.787C583.333 277.037 582.5 278.116 581.409 278.883C580.318 279.65 579.021 280.07 577.687 280.086C578.44 281.065 578.964 282.202 579.218 283.41C579.473 284.619 579.452 285.87 579.158 287.07L571.462 287.624C570.598 287.797 569.701 287.622 568.966 287.136C568.143 286.405 568.254 285.124 568.063 284.04C567.603 281.423 565.041 279.589 562.425 279.119C559.81 278.648 557.135 279.251 554.545 279.846C553.446 280.242 552.238 280.214 551.158 279.768C550.539 279.366 550.068 278.772 549.818 278.077C548.683 275.324 549.744 272.088 551.567 269.734C553.391 267.38 555.887 265.659 558.129 263.7C563.49 258.996 567.428 252.887 569.5 246.062C573.737 244.287 578.123 241.875 582.36 240.1C588.892 236.793 596.217 235.373 603.511 236.002L617.859 236.276C622.107 236.357 626.47 236.461 630.398 238.08C634.326 239.7 637.777 243.203 638.049 247.443C638.13 247.923 638.089 248.416 637.928 248.875C637.767 249.335 637.492 249.746 637.129 250.07C636.574 250.373 635.946 250.515 635.315 250.479C631.353 250.618 629.664 251.605 625.702 251.745Z" fill="white" stroke="rgba(0,0,0,0.2)" stroke-width="2" mask="url(#path-28-inside-6)"/>
</g>
<g id="Vector_24">
<mask id="path-29-inside-7" fill="white">
<path d="M511.339 296.712C511.899 296.181 512.303 295.507 512.505 294.762C512.707 294.017 512.699 293.23 512.484 292.489C511.119 291.963 509.636 291.828 508.199 292.099C506.762 292.37 505.43 293.037 504.352 294.025C503.502 294.885 502.769 295.853 502.173 296.905C500.288 299.981 498.62 303.655 499.713 307.094C499.802 307.469 499.965 307.822 500.192 308.133C500.42 308.444 500.707 308.707 501.037 308.905C501.527 309.102 502.055 309.185 502.581 309.147C504.658 309.145 506.733 309.017 508.795 308.765C510.061 308.61 511.531 308.252 512.021 307.075C512.664 305.526 511.107 303.774 511.561 302.16C511.86 301.438 512.312 300.79 512.887 300.261C513.172 299.995 513.391 299.666 513.527 299.3C513.663 298.934 513.711 298.542 513.669 298.154C513.486 297.396 512.326 296.967 511.909 297.625"/>
</mask>
<path d="M511.339 296.712C511.899 296.181 512.303 295.507 512.505 294.762C512.707 294.017 512.699 293.23 512.484 292.489C511.119 291.963 509.636 291.828 508.199 292.099C506.762 292.37 505.43 293.037 504.352 294.025C503.502 294.885 502.769 295.853 502.173 296.905C500.288 299.981 498.62 303.655 499.713 307.094C499.802 307.469 499.965 307.822 500.192 308.133C500.42 308.444 500.707 308.707 501.037 308.905C501.527 309.102 502.055 309.185 502.581 309.147C504.658 309.145 506.733 309.017 508.795 308.765C510.061 308.61 511.531 308.252 512.021 307.075C512.664 305.526 511.107 303.774 511.561 302.16C511.86 301.438 512.312 300.79 512.887 300.261C513.172 299.995 513.391 299.666 513.527 299.3C513.663 298.934 513.711 298.542 513.669 298.154C513.486 297.396 512.326 296.967 511.909 297.625" fill="white"/>
<path d="M512.484 292.489L513.444 292.21L513.305 291.735L512.844 291.556L512.484 292.489ZM504.352 294.025L503.676 293.288L503.658 293.304L503.64 293.322L504.352 294.025ZM502.173 296.905L503.026 297.428L503.035 297.413L503.043 297.398L502.173 296.905ZM499.713 307.094L500.686 306.863L500.677 306.826L500.666 306.791L499.713 307.094ZM501.037 308.905L500.522 309.762L500.591 309.804L500.665 309.833L501.037 308.905ZM502.581 309.147L502.58 308.147L502.545 308.147L502.51 308.15L502.581 309.147ZM508.795 308.765L508.916 309.757L508.916 309.757L508.795 308.765ZM512.021 307.075L511.097 306.691L511.097 306.691L512.021 307.075ZM511.561 302.16L510.637 301.777L510.614 301.832L510.598 301.889L511.561 302.16ZM512.887 300.261L513.564 300.997L513.569 300.992L512.887 300.261ZM513.669 298.154L514.663 298.045L514.656 297.981L514.641 297.919L513.669 298.154ZM512.026 297.438C512.72 296.781 513.22 295.946 513.47 295.023L511.539 294.5C511.386 295.067 511.078 295.582 510.651 295.986L512.026 297.438ZM513.47 295.023C513.72 294.101 513.711 293.127 513.444 292.21L511.523 292.769C511.688 293.333 511.693 293.932 511.539 294.5L513.47 295.023ZM512.844 291.556C511.306 290.963 509.633 290.811 508.013 291.117L508.384 293.082C509.638 292.845 510.933 292.963 512.123 293.422L512.844 291.556ZM508.013 291.117C506.394 291.422 504.892 292.174 503.676 293.288L505.027 294.762C505.968 293.901 507.131 293.319 508.384 293.082L508.013 291.117ZM503.64 293.322C502.728 294.244 501.942 295.283 501.303 296.412L503.043 297.398C503.596 296.423 504.275 295.525 505.063 294.728L503.64 293.322ZM501.32 296.382C499.435 299.458 497.518 303.491 498.76 307.397L500.666 306.791C499.722 303.82 501.14 300.504 503.026 297.428L501.32 296.382ZM498.74 307.325C498.86 307.829 499.079 308.305 499.385 308.723L500.999 307.543C500.851 307.339 500.744 307.108 500.686 306.863L498.74 307.325ZM499.385 308.723C499.691 309.142 500.078 309.495 500.522 309.762L501.553 308.048C501.336 307.918 501.148 307.747 500.999 307.543L499.385 308.723ZM500.665 309.833C501.295 310.086 501.975 310.193 502.652 310.145L502.51 308.15C502.135 308.176 501.759 308.118 501.41 307.977L500.665 309.833ZM502.583 310.147C504.7 310.145 506.815 310.014 508.916 309.757L508.674 307.772C506.652 308.019 504.617 308.145 502.58 308.147L502.583 310.147ZM508.916 309.757C509.58 309.676 510.378 309.534 511.099 309.22C511.828 308.902 512.567 308.367 512.944 307.458L511.097 306.691C510.986 306.96 510.745 307.193 510.299 307.387C509.846 307.585 509.276 307.699 508.674 307.772L508.916 309.757ZM512.944 307.458C513.424 306.303 513.053 305.127 512.819 304.352C512.539 303.427 512.392 302.898 512.524 302.43L510.598 301.889C510.276 303.035 510.68 304.19 510.905 304.931C511.175 305.824 511.261 306.298 511.097 306.691L512.944 307.458ZM512.485 302.542C512.728 301.955 513.096 301.427 513.564 300.997L512.21 299.525C511.528 300.153 510.991 300.921 510.637 301.777L512.485 302.542ZM513.569 300.992C513.968 300.619 514.275 300.159 514.464 299.648L512.589 298.952C512.508 299.172 512.376 299.37 512.204 299.53L513.569 300.992ZM514.464 299.648C514.654 299.136 514.722 298.587 514.663 298.045L512.675 298.262C512.7 298.496 512.671 298.732 512.589 298.952L514.464 299.648ZM514.641 297.919C514.449 297.124 513.797 296.608 513.188 296.408C512.579 296.208 511.611 296.227 511.064 297.089L512.753 298.16C512.734 298.19 512.705 298.223 512.665 298.25C512.626 298.277 512.59 298.29 512.565 298.296C512.521 298.307 512.52 298.294 512.565 298.309C512.606 298.322 512.65 298.348 512.68 298.378C512.709 298.406 512.703 298.414 512.697 298.389L514.641 297.919Z" fill="rgba(0,0,0,0.2)" mask="url(#path-29-inside-7)"/>
</g>
<path id="Vector_25" d="M516.463 282.895L516.496 282.896L516.528 282.893C518.354 282.709 520.197 282.824 521.985 283.233C523.581 283.685 524.504 284.372 525.077 285.172C525.661 285.988 525.922 286.974 526.094 288.103C526.158 288.522 526.208 288.948 526.26 289.388C526.278 289.542 526.296 289.698 526.316 289.856C526.389 290.459 526.474 291.081 526.606 291.7C526.872 292.943 527.332 294.195 528.297 295.317L528.311 295.334L528.327 295.349C528.975 295.98 529.572 296.661 530.11 297.387C530.575 298.264 530.822 299.241 530.829 300.235L530.83 300.248L530.83 300.26C530.966 302.586 530.654 304.916 529.912 307.124L529.905 307.145L529.9 307.166C529.645 308.219 529.014 309.143 528.127 309.764C527.22 310.139 526.224 310.249 525.257 310.079L525.233 310.075L525.21 310.073C524.301 310.001 523.319 309.832 522.54 309.48C521.765 309.131 521.269 308.639 521.149 307.946C521.033 307.266 521.327 306.624 521.798 305.835C521.862 305.729 521.929 305.62 521.997 305.508C522.407 304.841 522.883 304.066 523.035 303.215C523.266 301.919 522.743 300.756 522.208 299.728C522.121 299.56 522.034 299.396 521.947 299.234C521.482 298.359 521.059 297.563 520.929 296.708C520.862 296.262 520.866 295.771 520.894 295.243C520.903 295.071 520.915 294.891 520.926 294.708C520.95 294.35 520.974 293.979 520.98 293.63C520.997 292.569 520.86 291.407 519.863 290.634L519.839 290.615L519.813 290.599C519.184 290.224 518.5 289.947 517.788 289.779C516.679 289.324 515.779 288.472 515.264 287.389C514.745 286.294 514.656 285.044 515.016 283.887L515.018 283.88L515.02 283.873C515.107 283.564 515.291 283.291 515.544 283.094C515.829 282.954 516.145 282.885 516.463 282.895Z" fill="white" stroke="rgba(0,0,0,0.2)"/>
</g>
<path id="Vector_26" opacity="0.8" d="M991.171 607.784C991.171 607.784 717.969 450.962 600.352 480.675C600.352 480.675 351.087 507.5 322.199 566.515C322.199 566.515 242.962 318.9 214.074 310.647" stroke="rgba(108, 99, 255, 0.2)" stroke-width="2" stroke-miterlimit="10"/>
<path id="Vector_27" opacity="0.8" d="M322.199 566.515C368.007 444.359 780.698 308.996 780.698 308.996C722.096 323.853 600.352 480.675 600.352 480.675C600.352 480.675 342.833 293.314 214.074 310.647C214.074 310.647 781.111 329.218 991.171 607.784" stroke="rgba(108, 99, 255, 0.2)" stroke-width="2" stroke-miterlimit="10"/>
<path id="Vector_28" d="M214.074 322.615C220.683 322.615 226.042 317.256 226.042 310.647C226.042 304.037 220.683 298.679 214.074 298.679C207.464 298.679 202.105 304.037 202.105 310.647C202.105 317.256 207.464 322.615 214.074 322.615Z" fill="rgba(108, 99, 255, 0.2)"/>
<path id="Vector_29" d="M322.199 578.483C328.808 578.483 334.167 573.125 334.167 566.515C334.167 559.905 328.808 554.547 322.199 554.547C315.589 554.547 310.231 559.905 310.231 566.515C310.231 573.125 315.589 578.483 322.199 578.483Z" fill="rgba(108, 99, 255, 0.2)"/>
<path id="Vector_30" d="M780.698 320.964C787.308 320.964 792.666 315.606 792.666 308.996C792.666 302.386 787.308 297.028 780.698 297.028C774.088 297.028 768.73 302.386 768.73 308.996C768.73 315.606 774.088 320.964 780.698 320.964Z" fill="rgba(108, 99, 255, 0.2)"/>
<path id="Vector_31" d="M991.171 619.752C997.78 619.752 1003.14 614.394 1003.14 607.784C1003.14 601.174 997.78 595.816 991.171 595.816C984.561 595.816 979.203 601.174 979.203 607.784C979.203 614.394 984.561 619.752 991.171 619.752Z" fill="rgba(108, 99, 255, 0.2)"/>
<path id="Vector_32" d="M600.352 492.643C606.962 492.643 612.32 487.285 612.32 480.675C612.32 474.066 606.962 468.707 600.352 468.707C593.742 468.707 588.384 474.066 588.384 480.675C588.384 487.285 593.742 492.643 600.352 492.643Z" fill="rgba(108, 99, 255, 0.2)"/>
</g>
</g>
<defs>
<clipPath id="clip0">
<rect width="1176.61" height="873.979" fill="white"/>
</clipPath>
</defs>
</svg>
